<svg width="35" height="35" viewBox="0 0 35 35" fill="none" xmlns="http://www.w3.org/2000/svg">
<g id="folders-shelf">
<path id="Vector" fill-rule="evenodd" clip-rule="evenodd" d="M7.72909 5.39587C7.51923 5.40482 7.32037 5.49219 7.17185 5.64072C7.02332 5.78924 6.93594 5.9881 6.927 6.19796V28.8021C6.927 29.2192 7.312 29.6042 7.72909 29.6042H12.6874C13.052 29.6042 13.4895 29.2732 13.4895 28.6563V6.19796C13.4806 5.9881 13.3932 5.78924 13.2447 5.64072C13.0961 5.49219 12.8973 5.40482 12.6874 5.39587H7.72909ZM4.7395 6.19796C4.7395 4.57337 6.1045 3.20837 7.72909 3.20837H12.6874C14.312 3.20837 15.677 4.57337 15.677 6.19796V28.6563C15.677 30.3742 14.3645 31.7917 12.6874 31.7917H7.72909C6.9389 31.783 6.18355 31.4652 5.62477 30.9064C5.06599 30.3477 4.74822 29.5923 4.7395 28.8021V6.19796ZM22.3124 5.39587C22.1026 5.40482 21.9037 5.49219 21.7552 5.64072C21.6067 5.78924 21.5193 5.9881 21.5103 6.19796V28.8021C21.5103 29.2192 21.8953 29.6042 22.3124 29.6042H27.2708C27.4414 29.6042 27.5916 29.54 27.733 29.3825C27.8789 29.2221 28.016 28.9523 28.0728 28.5805V6.19796C28.0639 5.9881 27.9765 5.78924 27.828 5.64072C27.6795 5.49219 27.4806 5.40482 27.2708 5.39587H22.3124ZM19.3228 6.19796C19.3228 4.57337 20.6878 3.20837 22.3124 3.20837H27.2708C28.8953 3.20837 30.2603 4.57337 30.2603 6.19796V28.7248L30.2516 28.7919C30.0664 30.2707 29.0514 31.7917 27.2708 31.7917H22.3124C21.5222 31.783 20.7669 31.4652 20.2081 30.9064C19.6493 30.3477 19.3316 29.5923 19.3228 28.8021V6.19796Z" fill="white"/>
<path id="Vector_2" fill-rule="evenodd" clip-rule="evenodd" d="M14.5834 10.7916H5.97925V8.60413H14.5834V10.7916ZM20.4167 16.4791H29.0209V18.6666H20.4167V16.4791ZM24.7917 12.6145C24.3542 12.6145 24.0626 12.4687 23.7709 12.177C23.4792 11.8854 23.3334 11.5937 23.3334 11.1562C23.3334 10.7187 23.4792 10.427 23.7709 10.1354C24.3542 9.55204 25.2292 9.55204 25.8126 10.1354C26.1042 10.427 26.2501 10.7187 26.2501 11.1562C26.2501 11.5937 26.1042 11.8854 25.8126 12.177C25.5209 12.4687 25.0834 12.6145 24.7917 12.6145ZM10.2084 25.0104C9.77092 25.0104 9.47925 24.8645 9.18758 24.5729C8.89592 24.2812 8.75008 23.9895 8.75008 23.552C8.75008 23.1145 8.89592 22.8229 9.18758 22.5312C9.77092 21.9479 10.6459 21.9479 11.2292 22.5312C11.5209 22.8229 11.6667 23.1145 11.6667 23.552C11.6667 23.9895 11.5209 24.2812 11.2292 24.5729C10.9376 24.8645 10.6459 25.0104 10.2084 25.0104Z" fill="white"/>
</g>
</svg>
