<svg width="40" height="40" viewBox="0 0 40 40" fill="none" xmlns="http://www.w3.org/2000/svg">
<g id="Clip path group">
<mask id="mask0_179_397" style="mask-type:luminance" maskUnits="userSpaceOnUse" x="0" y="0" width="40" height="40">
<g id="clip0_656_2730">
<path id="Vector" d="M40 0H0V40H40V0Z" fill="white"/>
</g>
</mask>
<g mask="url(#mask0_179_397)">
<g id="Group">
<path id="Vector_2" d="M20.2294 39.4933H19.9746V39.0376H20.2294V39.4933ZM20.2294 38.5313H19.9746V38.0249H20.2294V38.5313ZM20.2294 37.5186H19.9746V37.0123H20.2294V37.5186ZM20.2294 36.506H19.9746V35.9996H20.2294V36.506ZM20.2294 35.4933H19.9746V34.987H20.2294V35.4933ZM20.2294 34.4806H19.9746V33.9743H20.2294V34.4806ZM20.2294 33.468H19.9746V32.9616H20.2294V33.468ZM20.2294 32.4553H19.9746V31.949H20.2294V32.4553ZM20.2294 31.4427H19.9746V30.9363H20.2294V31.4427ZM20.2294 30.43H19.9746V29.9237H20.2294V30.43ZM20.2294 29.4173H19.9746V28.911H20.2294V29.4173ZM20.2294 28.4047H19.9746V27.8984H20.2294V28.4047ZM20.2294 27.392H19.9746V26.8857H20.2294V27.392ZM20.2294 26.3794H19.9746V25.873H20.2294V26.3794ZM20.2294 25.3667H19.9746V24.8604H20.2294V25.3667ZM20.2294 24.3541H19.9746V23.8478H20.2294V24.3541ZM20.2294 23.3414H19.9746V22.8351H20.2294V23.3414ZM20.2294 22.3288H19.9746V21.8225H20.2294V22.3288ZM20.2294 21.3161H19.9746V20.8098H20.2294V21.3161ZM20.2294 20.3035H19.9746V19.7971H20.2294V20.3035ZM20.2294 19.2908H19.9746V18.7845H20.2294V19.2908ZM20.2294 18.2782H19.9746V17.7718H20.2294V18.2782ZM20.2294 17.2655H19.9746V16.7592H20.2294V17.2655ZM20.2294 16.2528H19.9746V15.7465H20.2294V16.2528ZM20.2294 15.2402H19.9746V14.7339H20.2294V15.2402ZM20.2294 14.2275H19.9746V13.7212H20.2294V14.2275ZM20.2294 13.2149H19.9746V12.7085H20.2294V13.2149ZM20.2294 12.2022H19.9746V11.6959H20.2294V12.2022ZM20.2294 11.1896H19.9746V10.6832H20.2294V11.1896ZM20.2294 10.1769H19.9746V9.67056H20.2294V10.1769ZM20.2294 9.16423H19.9746V8.65791H20.2294V9.16423ZM20.2294 8.15158H19.9746V7.64525H20.2294V8.15158ZM20.2294 7.13892H19.9746V6.63259H20.2294V7.13892ZM20.2294 6.12626H19.9746V5.61993H20.2294V6.12626ZM20.2294 5.1136H19.9746V4.60727H20.2294V5.1136ZM20.2294 4.10094H19.9746V3.59461H20.2294V4.10094ZM20.2294 3.08829H19.9746V2.58196H20.2294V3.08829ZM20.2294 2.07563H19.9746V1.5693H20.2294V2.07563ZM20.2294 1.06297H19.9746V0.556641H20.2294V1.06297Z" fill="#BDA179"/>
<path id="Vector_3" d="M20.0506 39.8738V39.6206C20.229 39.6206 20.3818 39.6206 20.5602 39.6206V39.8738C20.4073 39.8738 20.229 39.8738 20.0506 39.8738ZM19.5411 39.8738C19.3627 39.8738 19.2098 39.8738 19.0315 39.8485V39.5953C19.2098 39.5953 19.3627 39.6206 19.5411 39.6206V39.8738ZM21.0952 39.8485L21.0697 39.5953C21.2481 39.5953 21.4009 39.57 21.5793 39.57L21.6047 39.8232C21.4264 39.8232 21.2481 39.8485 21.0952 39.8485ZM18.5219 39.8232C18.3436 39.8232 18.1907 39.7978 18.0124 39.7725L18.0379 39.5194C18.2162 39.5447 18.3691 39.5447 18.5474 39.57L18.5219 39.8232ZM22.1143 39.7725L22.0888 39.5194C22.2672 39.494 22.42 39.494 22.5984 39.4687L22.6239 39.7219C22.4455 39.7219 22.2672 39.7472 22.1143 39.7725ZM17.5028 39.7219C17.3245 39.6966 17.1716 39.6713 16.9933 39.6459L17.0442 39.3928C17.2226 39.4181 17.3755 39.4434 17.5538 39.4687L17.5028 39.7219ZM23.1334 39.6206L23.0825 39.3675C23.2608 39.3421 23.4137 39.3168 23.592 39.2915L23.643 39.5447C23.4646 39.57 23.2863 39.5953 23.1334 39.6206ZM16.4837 39.57C16.3054 39.5447 16.1525 39.5194 15.9742 39.4687L16.0251 39.2156C16.178 39.2409 16.3563 39.2915 16.5347 39.3168L16.4837 39.57ZM24.127 39.4434L24.0761 39.1903C24.229 39.1649 24.4073 39.1143 24.5602 39.089L24.6111 39.3421C24.4583 39.3675 24.3054 39.4181 24.127 39.4434ZM15.4901 39.3675C15.3118 39.3168 15.1589 39.2915 14.9805 39.2409L15.057 38.9877C15.2098 39.0383 15.3882 39.0637 15.5411 39.1143L15.4901 39.3675ZM25.1207 39.2156L25.0442 38.9624C25.1971 38.9118 25.3753 38.8611 25.5282 38.8358L25.6046 39.089C25.4518 39.1143 25.299 39.1649 25.1207 39.2156ZM14.4965 39.1143C14.3436 39.0637 14.1653 39.013 14.0124 38.9624L14.0888 38.7092C14.2417 38.7599 14.42 38.8105 14.5729 38.8611L14.4965 39.1143ZM26.1142 38.9118L26.0378 38.6586C26.1906 38.608 26.369 38.5573 26.5218 38.5067L26.5983 38.7346C26.4454 38.8105 26.2671 38.8611 26.1142 38.9118ZM13.5028 38.7852C13.35 38.7346 13.1716 38.6839 13.0188 38.608L13.1207 38.3801C13.2735 38.4308 13.4264 38.5067 13.6047 38.5573L13.5028 38.7852ZM27.0824 38.5827L26.9804 38.3548C27.1333 38.3042 27.2862 38.2282 27.439 38.1776L27.541 38.4054C27.3881 38.4561 27.2352 38.5067 27.0824 38.5827ZM12.5602 38.4308C12.4073 38.3548 12.2544 38.3042 12.0761 38.2282L12.178 38.0004C12.3309 38.0763 12.4837 38.127 12.6366 38.2029L12.5602 38.4308ZM28.025 38.2029L27.9231 37.9751C28.076 37.8991 28.2289 37.8485 28.3817 37.7725L28.4836 38.0004C28.3308 38.051 28.1779 38.127 28.025 38.2029ZM11.6175 38.0257C11.4646 37.9497 11.3118 37.8738 11.1589 37.7978L11.2608 37.57C11.4137 37.6459 11.5665 37.7219 11.7194 37.7978L11.6175 38.0257ZM28.9422 37.7472L28.8148 37.5194C28.9677 37.4434 29.1206 37.3675 29.2734 37.2915L29.4008 37.5194C29.248 37.5953 29.0951 37.6713 28.9422 37.7472ZM10.7003 37.57C10.5474 37.494 10.3946 37.4181 10.2417 37.3168L10.3691 37.089C10.5219 37.1649 10.6748 37.2409 10.8022 37.3421L10.7003 37.57ZM29.8594 37.2662L29.732 37.0383C29.8849 36.9624 30.0123 36.8611 30.1652 36.7852L30.2925 37.013C30.1397 37.1143 29.9868 37.1902 29.8594 37.2662ZM9.80857 37.0637C9.65571 36.9877 9.52832 36.8865 9.37545 36.7852L9.50284 36.5827C9.65571 36.6839 9.78309 36.7599 9.93596 36.8358L9.80857 37.0637ZM30.7257 36.7346L30.5983 36.532C30.7511 36.4308 30.8785 36.3548 31.0314 36.2535L31.1843 36.4561C31.0059 36.5573 30.8785 36.6586 30.7257 36.7346ZM8.94233 36.5067C8.78946 36.4054 8.66207 36.3042 8.50921 36.2282L8.66208 36.0257C8.78946 36.127 8.94233 36.2282 9.06972 36.3042L8.94233 36.5067ZM31.5664 36.1776L31.4136 35.9751C31.541 35.8738 31.6938 35.7725 31.8212 35.6713L31.9741 35.8738C31.8467 35.9751 31.7193 36.0763 31.5664 36.1776ZM8.10157 35.9244C7.97418 35.8232 7.82131 35.7219 7.69392 35.6206L7.84679 35.4181C7.97418 35.5194 8.10156 35.6206 8.25443 35.7219L8.10157 35.9244ZM32.3817 35.5447L32.2289 35.3421C32.3562 35.2409 32.4836 35.1396 32.611 35.013L32.7639 35.2156C32.662 35.3421 32.5091 35.4434 32.3817 35.5447ZM7.28628 35.2915C7.15889 35.1902 7.0315 35.0637 6.90411 34.9624L7.08246 34.7599C7.20985 34.8611 7.33723 34.9877 7.46462 35.089L7.28628 35.2915ZM33.1715 34.9118L32.9932 34.7346C33.1206 34.6333 33.248 34.5067 33.3753 34.4054L33.5537 34.5827C33.4263 34.6839 33.2989 34.7852 33.1715 34.9118ZM6.52195 34.608C6.39456 34.4814 6.26717 34.3801 6.13978 34.2535L6.31813 34.0763C6.44551 34.2029 6.5729 34.3042 6.67481 34.4308L6.52195 34.608ZM33.9104 34.2029L33.732 34.0257C33.8594 33.8991 33.9613 33.7978 34.0887 33.6713L34.2671 33.8485C34.1652 33.9751 34.0378 34.0763 33.9104 34.2029ZM5.78309 33.8991C5.6557 33.7725 5.55379 33.6459 5.42641 33.5194L5.60475 33.3421C5.73214 33.4687 5.83405 33.5953 5.96144 33.6966L5.78309 33.8991ZM34.6238 33.4687L34.4454 33.2915C34.5473 33.1649 34.6747 33.0383 34.7766 32.9118L34.9804 33.089C34.8531 33.2156 34.7511 33.3421 34.6238 33.4687ZM5.0952 33.1649C4.99328 33.0383 4.8659 32.9118 4.76399 32.7852L4.96781 32.6333C5.06972 32.7599 5.19711 32.8864 5.29902 33.013L5.0952 33.1649ZM35.3117 32.7092L35.1078 32.5573C35.2097 32.4308 35.3117 32.3042 35.4136 32.1776L35.6174 32.3295C35.5155 32.4308 35.4136 32.5827 35.3117 32.7092ZM4.43278 32.3801C4.33086 32.2535 4.22895 32.1016 4.12704 31.9751L4.33086 31.8232C4.43278 31.9497 4.53469 32.1016 4.6366 32.2282L4.43278 32.3801ZM35.9486 31.8991L35.7448 31.7472C35.8467 31.6206 35.9486 31.4687 36.0505 31.3421L36.2543 31.494C36.1269 31.6206 36.0505 31.7725 35.9486 31.8991ZM3.82131 31.57C3.7194 31.4434 3.61749 31.2915 3.54106 31.1396L3.74488 30.9877C3.84679 31.1143 3.92322 31.2662 4.02513 31.3928L3.82131 31.57ZM36.5346 31.0637L36.3308 30.9118C36.4327 30.7599 36.5091 30.6333 36.611 30.4814L36.8148 30.608C36.7129 30.7852 36.6365 30.9371 36.5346 31.0637ZM3.23532 30.7346C3.13341 30.5827 3.05698 30.4561 2.95507 30.3042L3.18437 30.1776C3.2608 30.3295 3.36271 30.4561 3.43914 30.608L3.23532 30.7346ZM37.0696 30.2029L36.8403 30.0763C36.9168 29.9244 37.0187 29.7978 37.0951 29.6459L37.3244 29.7725C37.248 29.8991 37.1715 30.051 37.0696 30.2029ZM2.72577 29.8485C2.64934 29.6966 2.54742 29.5447 2.47099 29.3928L2.70029 29.2662C2.77672 29.4181 2.85316 29.57 2.95507 29.6966L2.72577 29.8485ZM37.5792 29.3168L37.3499 29.1902C37.4263 29.0383 37.5027 28.8864 37.5792 28.7346L37.8085 28.8358C37.732 29.013 37.6556 29.1649 37.5792 29.3168ZM2.24169 28.9624C2.16526 28.8105 2.08882 28.6586 2.01239 28.5067L2.24169 28.4054C2.31812 28.5573 2.39456 28.7092 2.47099 28.8611L2.24169 28.9624ZM38.0378 28.4054L37.8085 28.3042C37.8849 28.1523 37.9613 28.0004 38.0123 27.8485L38.2416 27.9497C38.1906 28.1016 38.1142 28.2535 38.0378 28.4054ZM1.80857 28.051C1.73214 27.8991 1.68118 27.7472 1.60475 27.5953L1.83405 27.494C1.91048 27.6459 1.96143 27.7978 2.03787 27.9497L1.80857 28.051ZM38.4454 27.4687L38.2161 27.3675C38.2671 27.2156 38.3435 27.0637 38.3945 26.8864L38.6238 26.9624C38.5728 27.1396 38.5218 27.3168 38.4454 27.4687ZM1.40093 27.089C1.34997 26.9371 1.27354 26.7599 1.22258 26.608L1.45188 26.532C1.50284 26.6839 1.55379 26.8358 1.63022 27.013L1.40093 27.089ZM38.8021 26.5067L38.5728 26.4308C38.6238 26.2789 38.6747 26.1016 38.7257 25.9497L38.9804 26.0257C38.904 26.1776 38.8531 26.3548 38.8021 26.5067ZM1.06972 26.127C1.01876 25.9751 0.967804 25.7978 0.916849 25.6459L1.17163 25.57C1.22258 25.7219 1.27354 25.8991 1.32449 26.051L1.06972 26.127ZM39.1078 25.5194L38.8531 25.4434C38.904 25.2915 38.955 25.1143 38.9804 24.9624L39.2352 25.0383C39.2097 25.2156 39.1588 25.3675 39.1078 25.5194ZM0.78946 25.1649C0.738505 25.013 0.713027 24.8358 0.662072 24.6586L0.916849 24.608C0.967804 24.7599 0.993282 24.9371 1.04424 25.089L0.78946 25.1649ZM39.3626 24.5573L39.1078 24.5067C39.1588 24.3548 39.1843 24.1776 39.2097 24.0257L39.4645 24.0763C39.439 24.2029 39.4136 24.3801 39.3626 24.5573ZM0.534683 24.1776C0.509206 24.0004 0.45825 23.8485 0.432772 23.6713L0.68755 23.6206C0.713027 23.7978 0.763983 23.9497 0.78946 24.127L0.534683 24.1776ZM39.5919 23.5447L39.3371 23.494C39.3626 23.3168 39.3881 23.1649 39.4136 22.9877L39.6683 23.0383C39.6429 23.2156 39.6174 23.3928 39.5919 23.5447ZM0.356339 23.1649C0.330862 22.9877 0.305384 22.8358 0.279906 22.6586L0.534683 22.6333C0.560161 22.8105 0.585639 22.9624 0.611116 23.1396L0.356339 23.1649ZM39.7448 22.532L39.49 22.5067C39.5155 22.3295 39.541 22.1776 39.541 22.0004L39.7957 22.0257C39.7703 22.2029 39.7448 22.3801 39.7448 22.532ZM0.228951 22.1523C0.203473 21.9751 0.203473 21.8232 0.177995 21.6459L0.432772 21.6206C0.45825 21.7978 0.45825 21.9497 0.483728 22.127L0.228951 22.1523ZM39.8467 21.5194L39.5919 21.494C39.6174 21.3168 39.6174 21.1649 39.6174 20.9877H39.8722C39.8722 21.1902 39.8467 21.3675 39.8467 21.5194ZM0.12704 21.1396C0.12704 20.9624 0.101562 20.8105 0.101562 20.6333H0.356339C0.356339 20.8105 0.356339 20.9624 0.381817 21.1396H0.12704ZM39.8976 20.5067H39.6429C39.6429 20.3295 39.6429 20.1776 39.6429 20.0004C39.6429 19.9244 39.6429 19.8232 39.6429 19.7472H39.8976C39.8976 19.8232 39.8976 19.9244 39.8976 20.0004C39.8976 20.1776 39.8976 20.3295 39.8976 20.5067ZM0.101562 20.127V20.0004C0.101562 19.8738 0.101562 19.7472 0.101562 19.6206H0.356339C0.356339 19.7472 0.356339 19.8738 0.356339 20.0004V20.127H0.101562ZM39.6174 19.2409C39.6174 19.0637 39.5919 18.9118 39.5919 18.7346L39.8467 18.7092C39.8467 18.8864 39.8722 19.0383 39.8722 19.2156L39.6174 19.2409ZM0.381817 19.1143H0.12704C0.12704 18.9371 0.152518 18.7852 0.152518 18.608L0.407295 18.6333C0.381817 18.7852 0.381817 18.9371 0.381817 19.1143ZM39.5664 18.2535C39.541 18.0763 39.541 17.9244 39.5155 17.7472L39.7703 17.7219C39.7957 17.8991 39.7957 18.051 39.8212 18.2282L39.5664 18.2535ZM0.45825 18.1016L0.203473 18.0763C0.228951 17.8991 0.228951 17.7472 0.254429 17.57L0.509206 17.5953C0.483728 17.7725 0.45825 17.9497 0.45825 18.1016ZM39.439 17.2409C39.4136 17.0637 39.3881 16.9118 39.3626 16.7346L39.6174 16.6839C39.6429 16.8611 39.6683 17.013 39.6938 17.1902L39.439 17.2409ZM0.560161 17.1143L0.305384 17.089C0.330862 16.9118 0.356339 16.7599 0.381817 16.5827L0.636594 16.6333C0.611116 16.7852 0.585639 16.9371 0.560161 17.1143ZM39.2862 16.2535C39.2607 16.0763 39.2097 15.9244 39.1843 15.7725L39.439 15.7219C39.4645 15.8991 39.5155 16.051 39.541 16.2282L39.2862 16.2535ZM0.738505 16.127L0.483728 16.0763C0.509206 15.8991 0.560161 15.7472 0.585639 15.57L0.840416 15.6206C0.814938 15.7978 0.763983 15.9497 0.738505 16.127ZM39.0569 15.2662C39.0059 15.1143 38.9804 14.9371 38.9295 14.7852L39.1843 14.7092C39.2352 14.8611 39.2607 15.0383 39.3117 15.1902L39.0569 15.2662ZM0.967804 15.1396L0.713027 15.089C0.763983 14.9118 0.78946 14.7599 0.840416 14.608L1.09519 14.6839C1.04424 14.8105 0.993282 14.9877 0.967804 15.1396ZM38.8021 14.3042C38.7511 14.1523 38.7002 13.9751 38.6492 13.8232L38.8785 13.7472C38.9295 13.8991 38.9804 14.0763 39.0314 14.2282L38.8021 14.3042ZM1.24806 14.1776L0.993282 14.1016C1.04424 13.9497 1.09519 13.7725 1.14615 13.6206L1.37545 13.6966C1.34997 13.8485 1.29901 14.0257 1.24806 14.1776ZM38.4709 13.3421C38.4199 13.1902 38.3435 13.0383 38.2925 12.8611L38.5218 12.7599C38.5728 12.9118 38.6492 13.089 38.7002 13.2409L38.4709 13.3421ZM1.55379 13.2156L1.32449 13.1396C1.37545 12.9877 1.45188 12.8105 1.50284 12.6586L1.73214 12.7599C1.68118 12.9118 1.63022 13.0637 1.55379 13.2156ZM38.1142 12.4054C38.0378 12.2535 37.9868 12.1016 37.9104 11.9497L38.1397 11.8485C38.2161 12.0004 38.2671 12.1523 38.3435 12.3042L38.1142 12.4054ZM1.93596 12.2789L1.70666 12.1776C1.78309 12.0257 1.83405 11.8738 1.91048 11.7219L2.13978 11.8232C2.06335 11.9751 2.01239 12.127 1.93596 12.2789ZM37.7066 11.494C37.6301 11.3421 37.5537 11.1902 37.4773 11.0383L37.7066 10.9118C37.783 11.0637 37.8594 11.2156 37.9359 11.3675L37.7066 11.494ZM2.36908 11.3675L2.13978 11.2662C2.21621 11.1143 2.29265 10.9624 2.36908 10.8105L2.59838 10.9371C2.49647 11.0637 2.42004 11.2156 2.36908 11.3675ZM37.248 10.608C37.1715 10.4561 37.0951 10.3042 36.9932 10.1776L37.2225 10.051C37.2989 10.2029 37.4008 10.3548 37.4773 10.5067L37.248 10.608ZM2.82768 10.4814L2.59838 10.3548C2.67481 10.2029 2.77672 10.051 2.85316 9.89911L3.08246 10.0257C2.98055 10.1776 2.90411 10.3295 2.82768 10.4814ZM36.7384 9.72189C36.662 9.56999 36.5601 9.44341 36.4582 9.29151L36.662 9.16493C36.7639 9.31683 36.8403 9.44341 36.9422 9.59531L36.7384 9.72189ZM3.33723 9.59531L3.13341 9.46873C3.23532 9.31683 3.31176 9.19025 3.41367 9.03835L3.61749 9.19025C3.51558 9.31683 3.43914 9.46873 3.33723 9.59531ZM36.2034 8.88645C36.1015 8.75986 35.9996 8.60797 35.9231 8.48138L36.1269 8.32949C36.2289 8.45607 36.3308 8.60797 36.4327 8.73455L36.2034 8.88645ZM3.89774 8.75986L3.69392 8.60797C3.79583 8.45607 3.89774 8.32949 3.99965 8.2029L4.20348 8.3548C4.10156 8.48138 3.99965 8.63328 3.89774 8.75986ZM35.5919 8.07632C35.49 7.94974 35.3881 7.82316 35.2862 7.67126L35.49 7.51936C35.5919 7.64594 35.6938 7.77252 35.7957 7.92442L35.5919 8.07632ZM4.50921 7.94974L4.30539 7.79784C4.4073 7.67126 4.50921 7.51936 4.6366 7.39278L4.84042 7.54468C4.71303 7.69657 4.61112 7.82316 4.50921 7.94974ZM34.955 7.29151C34.8531 7.16493 34.7257 7.03835 34.6238 6.91176L34.8021 6.73455C34.904 6.86113 35.0314 6.98771 35.1333 7.1143L34.955 7.29151ZM5.14615 7.16493L4.94233 6.98771C5.04424 6.86113 5.17163 6.73455 5.27354 6.60797L5.45188 6.78518C5.34997 6.91176 5.24806 7.03835 5.14615 7.16493ZM34.2925 6.53202C34.1652 6.40543 34.0632 6.27885 33.9359 6.17759L34.1142 6.00037C34.2416 6.12695 34.3435 6.25354 34.4709 6.3548L34.2925 6.53202ZM5.80857 6.43075L5.63023 6.25354C5.75762 6.12695 5.85953 6.00037 5.98692 5.89911L6.16526 6.07632C6.06335 6.17759 5.93596 6.30417 5.80857 6.43075ZM33.5792 5.82316C33.4518 5.69657 33.3244 5.59531 33.2225 5.46873L33.4008 5.29151C33.5282 5.41809 33.6556 5.51936 33.783 5.64594L33.5792 5.82316ZM6.54742 5.72189L6.36908 5.51936C6.49647 5.39278 6.62386 5.29151 6.75125 5.16493L6.92959 5.34214C6.77672 5.49404 6.64934 5.59531 6.54742 5.72189ZM32.8403 5.13961C32.7129 5.03835 32.5855 4.91176 32.4582 4.8105L32.611 4.60797C32.7384 4.70923 32.8658 4.83581 32.9932 4.93708L32.8403 5.13961ZM7.28628 5.03835L7.13341 4.86113C7.2608 4.75987 7.38819 4.63328 7.51558 4.53202L7.66844 4.73455C7.54106 4.83581 7.41367 4.93708 7.28628 5.03835ZM32.0505 4.5067C31.9231 4.40543 31.7957 4.30417 31.6429 4.2029L31.7957 4.00037C31.9231 4.10164 32.076 4.2029 32.2034 4.30417L32.0505 4.5067ZM8.07609 4.40543L7.92322 4.2029C8.05061 4.10164 8.20348 4.00037 8.33086 3.89911L8.48373 4.10164C8.33086 4.2029 8.20348 4.30417 8.07609 4.40543ZM31.2352 3.89911C31.1078 3.79784 30.955 3.69657 30.8276 3.62062L30.9804 3.41809C31.1333 3.51936 31.2607 3.62062 31.4136 3.69657L31.2352 3.89911ZM8.89137 3.82316L8.73851 3.62062C8.89137 3.51936 9.01876 3.41809 9.17163 3.34214L9.29902 3.54468C9.17163 3.62062 9.01876 3.72189 8.89137 3.82316ZM30.3945 3.34214C30.2416 3.24088 30.1142 3.16493 29.9613 3.08898L30.0887 2.86113C30.2416 2.93708 30.3945 3.03835 30.5218 3.13961L30.3945 3.34214ZM9.73214 3.26619L9.60475 3.03835C9.75762 2.93708 9.885 2.86113 10.0379 2.78518L10.1653 3.01303C10.0124 3.08898 9.885 3.19024 9.73214 3.26619ZM29.5282 2.83581C29.3753 2.75986 29.2225 2.68392 29.0951 2.60797L29.2225 2.38012C29.3753 2.45607 29.5282 2.53202 29.6811 2.63328L29.5282 2.83581ZM10.5984 2.75986L10.4965 2.53202C10.6493 2.45607 10.8022 2.38012 10.9551 2.30417L11.0825 2.53202C10.9041 2.60797 10.7512 2.68392 10.5984 2.75986ZM28.6365 2.38012C28.4836 2.30417 28.3308 2.22822 28.1779 2.15227L28.2798 1.92442C28.4327 2.00037 28.5855 2.07632 28.7384 2.15227L28.6365 2.38012ZM11.5156 2.30417L11.4137 2.07632C11.5665 2.00037 11.7194 1.92442 11.8723 1.87379L11.9742 2.10164C11.8213 2.15227 11.6684 2.22822 11.5156 2.30417ZM27.6938 1.94974C27.541 1.87379 27.3881 1.82316 27.2352 1.74721L27.3371 1.51936C27.49 1.56999 27.6429 1.64594 27.8212 1.72189L27.6938 1.94974ZM12.4328 1.89911L12.3309 1.67126C12.4837 1.59531 12.6366 1.51936 12.7895 1.46873L12.8914 1.69657C12.7385 1.77252 12.5856 1.82316 12.4328 1.89911ZM26.7511 1.56999C26.5983 1.51936 26.4454 1.44341 26.2671 1.39278L26.3435 1.16493C26.4964 1.21556 26.6747 1.26619 26.8276 1.34214L26.7511 1.56999ZM13.3755 1.51936L13.299 1.29151C13.4519 1.24088 13.6302 1.19024 13.7831 1.1143L13.8595 1.34214C13.6812 1.41809 13.5283 1.46873 13.3755 1.51936ZM25.8085 1.24088C25.6556 1.19024 25.4773 1.13961 25.3245 1.08898L25.4008 0.835814C25.5537 0.886447 25.732 0.93708 25.8849 0.987713L25.8085 1.24088ZM14.3181 1.21556L14.2417 0.962396C14.3946 0.911763 14.5729 0.86113 14.7258 0.810498L14.8022 1.06366C14.6493 1.1143 14.4965 1.16493 14.3181 1.21556ZM24.8149 0.987713C24.6621 0.93708 24.4837 0.911763 24.3309 0.86113L24.3818 0.607966C24.5602 0.633282 24.713 0.683915 24.8914 0.734548L24.8149 0.987713ZM15.3118 0.93708L15.2608 0.683915C15.4391 0.633282 15.592 0.607966 15.7704 0.557333L15.8213 0.810498C15.643 0.86113 15.4646 0.911763 15.3118 0.93708ZM23.8468 0.759865C23.6939 0.734548 23.5156 0.709232 23.3372 0.658599L23.3882 0.405434C23.5665 0.430751 23.7194 0.456067 23.8977 0.5067L23.8468 0.759865ZM16.3054 0.734548L16.2544 0.481384C16.4328 0.456067 16.5856 0.430751 16.764 0.380118L16.8149 0.633282C16.6366 0.658599 16.4583 0.683915 16.3054 0.734548ZM22.8532 0.582649C22.6748 0.557333 22.5219 0.532016 22.3436 0.5067L22.3691 0.253535C22.5474 0.278852 22.7003 0.304168 22.8786 0.329485L22.8532 0.582649ZM17.299 0.557333L17.2735 0.304168C17.4519 0.278852 17.6047 0.253535 17.7831 0.228219L17.8086 0.481384C17.6302 0.532016 17.4519 0.532016 17.299 0.557333ZM21.834 0.456067C21.6557 0.430751 21.5028 0.430751 21.3245 0.405434L21.35 0.15227C21.5283 0.15227 21.6812 0.177586 21.8595 0.202902L21.834 0.456067ZM18.2926 0.456067L18.2672 0.202902C18.4455 0.177586 18.5984 0.177586 18.7767 0.177586L18.8022 0.430751C18.6239 0.430751 18.471 0.430751 18.2926 0.456067ZM20.8149 0.405434C20.6366 0.405434 20.4837 0.405434 20.3054 0.380118V0.126953C20.4837 0.126953 20.6366 0.126953 20.8149 0.15227V0.405434ZM19.3118 0.380118V0.126953C19.4901 0.126953 19.643 0.126953 19.8213 0.126953V0.380118C19.643 0.380118 19.4646 0.380118 19.3118 0.380118Z" fill="#BDA179"/>
<path id="Vector_4" d="M19.9993 39.8234H19.9484V39.5703H19.9993C20.1522 39.5703 20.305 39.5703 20.4579 39.5703L20.4834 39.8234C20.305 39.7981 20.1522 39.8234 19.9993 39.8234ZM19.4388 39.7981C19.2605 39.7981 19.0821 39.7728 18.9293 39.7475L18.9547 39.4943C19.1076 39.5196 19.2859 39.5196 19.4643 39.5449L19.4388 39.7981ZM20.9675 39.7475L20.942 39.4943C21.1203 39.469 21.2732 39.4437 21.4261 39.4184L21.477 39.6715C21.3242 39.7222 21.1458 39.7475 20.9675 39.7475ZM18.3942 39.6715C18.2159 39.6462 18.063 39.5956 17.8847 39.5703L17.9356 39.3171C18.0885 39.3677 18.2668 39.393 18.4197 39.4184L18.3942 39.6715ZM21.9866 39.5703L21.9356 39.3171C22.0885 39.2665 22.2668 39.2411 22.4197 39.1905L22.4961 39.4437C22.3178 39.4943 22.1649 39.5449 21.9866 39.5703ZM17.4006 39.4184C17.2477 39.3677 17.0694 39.3171 16.9165 39.2411L17.0184 39.0133C17.1713 39.0639 17.3242 39.1146 17.5025 39.1652L17.4006 39.4184ZM22.9802 39.2918L22.9038 39.0639C23.0566 39.0133 23.2095 38.9373 23.3624 38.8867L23.4643 39.1146C23.3114 39.1652 23.1586 39.2158 22.9802 39.2918ZM16.4324 39.0639C16.2796 38.988 16.1267 38.912 15.9738 38.8361L16.0757 38.6082C16.2286 38.6842 16.3815 38.7601 16.5343 38.8108L16.4324 39.0639ZM23.9229 38.8867L23.821 38.6589C23.9738 38.5829 24.1267 38.507 24.2796 38.431L24.407 38.6589C24.2286 38.7348 24.0757 38.8108 23.9229 38.8867ZM15.5152 38.6082C15.3624 38.5323 15.2095 38.431 15.0821 38.3551L15.2095 38.1525C15.3624 38.2538 15.4898 38.3298 15.6426 38.4057L15.5152 38.6082ZM24.8401 38.3804L24.7127 38.1779C24.8656 38.1019 24.9929 38.0006 25.1458 37.8994L25.2987 38.1019C25.1203 38.2032 24.9929 38.3044 24.8401 38.3804ZM14.649 38.0513C14.5216 37.95 14.3687 37.8487 14.2414 37.7475L14.3942 37.5449C14.5216 37.6462 14.6745 37.7475 14.8019 37.8487L14.649 38.0513ZM25.6808 37.7981L25.5279 37.5956C25.6553 37.4943 25.7827 37.393 25.9356 37.2918L26.0884 37.4943C25.961 37.5956 25.8337 37.6968 25.6808 37.7981ZM13.8337 37.4184C13.7063 37.3171 13.5789 37.1905 13.4515 37.0892L13.6299 36.912C13.7573 37.0133 13.8847 37.1399 14.0121 37.2411L13.8337 37.4184ZM26.4706 37.1652L26.2923 36.988C26.4196 36.8867 26.547 36.7601 26.6744 36.6589L26.8528 36.8361C26.7254 36.9373 26.598 37.0386 26.4706 37.1652ZM13.0694 36.7348C12.942 36.6082 12.8146 36.507 12.7127 36.3804L12.891 36.2032C13.0184 36.3298 13.1203 36.4563 13.2477 36.5576L13.0694 36.7348ZM27.2095 36.4563L27.0311 36.2791C27.1585 36.1525 27.2604 36.026 27.3878 35.8994L27.5661 36.0766C27.4642 36.2032 27.3368 36.3298 27.2095 36.4563ZM12.356 36.0006C12.2541 35.8741 12.1267 35.7475 12.0248 35.6209L12.2286 35.4437C12.3305 35.5703 12.4579 35.6968 12.5598 35.8234L12.356 36.0006ZM27.9228 35.6968L27.719 35.5449C27.8209 35.4184 27.9228 35.2918 28.0502 35.1652L28.254 35.3171C28.1267 35.4437 28.0247 35.5703 27.9228 35.6968ZM11.6936 35.2158C11.5917 35.0892 11.4898 34.9373 11.3879 34.8108L11.5917 34.6589C11.6936 34.7854 11.7955 34.9373 11.8974 35.0639L11.6936 35.2158ZM28.5343 34.8867L28.3305 34.7348C28.4324 34.6082 28.5343 34.4563 28.6362 34.3298L28.84 34.4817C28.7381 34.6082 28.6362 34.7601 28.5343 34.8867ZM11.1076 34.4057C11.0057 34.2791 10.9038 34.1272 10.8273 33.9753L11.0312 33.8487C11.1331 34.0006 11.2095 34.1272 11.3114 34.2791L11.1076 34.4057ZM29.1203 34.0513L28.9165 33.9247C29.0184 33.7728 29.0948 33.6462 29.1967 33.4943L29.426 33.6209C29.3241 33.7728 29.2222 33.9247 29.1203 34.0513ZM10.5471 33.5449C10.4707 33.393 10.3687 33.2665 10.2923 33.1146L10.5216 32.988C10.598 33.1399 10.7 33.2665 10.7764 33.4184L10.5471 33.5449ZM29.6808 33.1905L29.4515 33.0639C29.5279 32.912 29.6298 32.7854 29.7063 32.6335L29.9356 32.7601C29.8337 32.8867 29.7572 33.0386 29.6808 33.1905ZM10.0375 32.6589C9.9611 32.507 9.88467 32.3551 9.80823 32.2032L10.0375 32.0766C10.114 32.2285 10.1904 32.3804 10.2668 32.5323L10.0375 32.6589ZM30.1649 32.3044L29.9356 32.1779C30.012 32.026 30.0884 31.8741 30.1649 31.7222L30.3942 31.8234C30.3177 32.0006 30.2413 32.1525 30.1649 32.3044ZM9.55346 31.7475C9.47702 31.5956 9.40059 31.4437 9.34963 31.2918L9.57893 31.1905C9.65537 31.3424 9.7318 31.4943 9.78276 31.6462L9.55346 31.7475ZM30.598 31.3677L30.3687 31.2665C30.4451 31.1146 30.4961 30.9627 30.5725 30.8108L30.8018 30.912C30.7509 31.0639 30.6744 31.2158 30.598 31.3677ZM9.14581 30.8108C9.06938 30.6589 9.01842 30.507 8.94199 30.3298L9.17129 30.2285C9.22225 30.3804 9.29868 30.5323 9.37511 30.6842L9.14581 30.8108ZM31.0056 30.431L30.7763 30.3298C30.8273 30.1779 30.9037 30.026 30.9547 29.8487L31.184 29.95C31.133 30.1272 31.0821 30.2791 31.0056 30.431ZM8.76365 29.8741C8.71269 29.7222 8.63626 29.5449 8.5853 29.393L8.8146 29.3171C8.86556 29.469 8.91651 29.6462 8.99295 29.7981L8.76365 29.8741ZM31.3623 29.4943L31.133 29.4184C31.184 29.2665 31.2349 29.1146 31.2859 28.9374L31.5152 29.0133C31.4897 29.1652 31.4388 29.3424 31.3623 29.4943ZM8.43244 28.912C8.38148 28.7601 8.33053 28.5829 8.27957 28.431L8.53435 28.3551C8.5853 28.507 8.63626 28.6842 8.68721 28.8361L8.43244 28.912ZM31.6935 28.5323L31.4388 28.4563C31.4897 28.3044 31.5407 28.1272 31.5916 27.9753L31.8464 28.0513C31.7954 28.2032 31.7445 28.3551 31.6935 28.5323ZM8.1267 27.95C8.07575 27.7981 8.02479 27.6209 7.99932 27.469L8.25409 27.393C8.30505 27.5449 8.33053 27.7222 8.38148 27.8741L8.1267 27.95ZM31.9738 27.5449L31.719 27.469C31.77 27.3171 31.7954 27.1399 31.8464 26.988L32.1012 27.0386C32.0757 27.2158 32.0247 27.393 31.9738 27.5449ZM7.87193 26.9627C7.82097 26.8108 7.79549 26.6336 7.74454 26.4563L7.99932 26.4057C8.02479 26.5829 8.07575 26.7348 8.1267 26.8867L7.87193 26.9627ZM32.2286 26.5576L31.9738 26.507C31.9993 26.3551 32.0502 26.1779 32.0757 26.026L32.3305 26.0766C32.305 26.2285 32.254 26.4057 32.2286 26.5576ZM7.64263 25.95C7.61715 25.7728 7.56619 25.6209 7.54072 25.4437L7.79549 25.393C7.82097 25.5703 7.84645 25.7222 7.89741 25.8994L7.64263 25.95ZM32.4324 25.5703L32.1776 25.5196C32.2031 25.3677 32.2286 25.1905 32.2795 25.0132L32.5343 25.0639C32.5088 25.2411 32.4579 25.393 32.4324 25.5703ZM7.46428 24.9626C7.43881 24.7854 7.41333 24.6335 7.38785 24.4563L7.64263 24.431C7.66811 24.6082 7.69358 24.7601 7.71906 24.9373L7.46428 24.9626ZM32.6107 24.5576L32.356 24.5069C32.3814 24.3297 32.4069 24.1778 32.4324 24.0006L32.6872 24.0259C32.6617 24.2284 32.6362 24.4057 32.6107 24.5576ZM7.31142 23.95C7.28594 23.7727 7.26046 23.6208 7.26046 23.4436L7.51524 23.4183C7.54072 23.5955 7.56619 23.7474 7.56619 23.9246L7.31142 23.95ZM32.7381 23.5449L32.4833 23.5196C32.5088 23.3424 32.5088 23.1905 32.5343 23.0133L32.7891 23.0386C32.7891 23.2158 32.7636 23.393 32.7381 23.5449ZM7.18403 22.9373C7.15855 22.7601 7.15855 22.6082 7.13307 22.431L7.38785 22.4057C7.41333 22.5829 7.41333 22.7348 7.43881 22.912L7.18403 22.9373ZM32.84 22.5322L32.5852 22.5069C32.6107 22.3297 32.6107 22.1778 32.6107 22.0006L32.8655 22.0259C32.8655 22.2031 32.8655 22.3803 32.84 22.5322ZM7.1076 21.9246C7.1076 21.7474 7.08212 21.5955 7.08212 21.4183H7.3369C7.3369 21.5955 7.36237 21.7474 7.36237 21.9246H7.1076ZM32.9165 21.5196L32.6617 21.4943C32.6617 21.317 32.6872 21.1651 32.6872 20.9879H32.9419C32.9419 21.1905 32.9165 21.3677 32.9165 21.5196ZM7.05664 20.912C7.05664 20.7348 7.05664 20.5829 7.05664 20.4057H7.31142C7.31142 20.5829 7.31142 20.7348 7.31142 20.912H7.05664ZM32.9419 20.5069H32.6872C32.6872 20.3297 32.6872 20.1778 32.6872 20.0006H32.9419C32.9419 20.1778 32.9419 20.3297 32.9419 20.5069ZM7.31142 19.8993H7.05664C7.05664 19.7221 7.05664 19.5702 7.05664 19.393H7.31142C7.31142 19.5702 7.31142 19.7221 7.31142 19.8993ZM32.6872 19.6968C32.6872 19.5196 32.6872 19.3677 32.6872 19.1905H32.9419C32.9419 19.3677 32.9419 19.5196 32.9419 19.6968H32.6872ZM7.31142 18.8867H7.05664C7.05664 18.7095 7.08212 18.5576 7.08212 18.3803L7.3369 18.4057C7.3369 18.5576 7.3369 18.7348 7.31142 18.8867ZM32.6617 18.6841C32.6617 18.5069 32.6362 18.355 32.6362 18.1778L32.891 18.1525C32.891 18.3297 32.9165 18.4816 32.9165 18.6588L32.6617 18.6841ZM7.36237 17.874L7.1076 17.8487C7.1076 17.6715 7.13307 17.5196 7.15855 17.3424L7.41333 17.3677C7.38785 17.5449 7.38785 17.7221 7.36237 17.874ZM32.6107 17.6715C32.6107 17.4943 32.5852 17.3424 32.5598 17.1651L32.8145 17.1398C32.84 17.317 32.84 17.4689 32.8655 17.6462L32.6107 17.6715ZM7.46428 16.8867L7.20951 16.8614C7.23498 16.6841 7.23498 16.5322 7.26046 16.355L7.51524 16.3803C7.48976 16.5576 7.48976 16.7095 7.46428 16.8867ZM32.5088 16.6841C32.4833 16.5069 32.4579 16.355 32.4579 16.1778L32.7126 16.1525C32.7381 16.3297 32.7636 16.4816 32.7636 16.6588L32.5088 16.6841ZM7.59167 15.874L7.3369 15.8487C7.36237 15.6715 7.38785 15.5196 7.41333 15.3424L7.66811 15.393C7.64263 15.5449 7.61715 15.7221 7.59167 15.874ZM32.3814 15.6715C32.3559 15.4943 32.3305 15.3424 32.305 15.1651L32.5598 15.1145C32.5852 15.2917 32.6107 15.4436 32.6362 15.6208L32.3814 15.6715ZM7.74454 14.8867L7.48976 14.836C7.51524 14.6588 7.54072 14.5069 7.59167 14.3297L7.84645 14.3803C7.79549 14.5576 7.77002 14.7095 7.74454 14.8867ZM32.2286 14.6841C32.2031 14.5069 32.1776 14.355 32.1266 14.1778L32.3814 14.1272C32.4069 14.3044 32.4579 14.4563 32.4833 14.6335L32.2286 14.6841ZM7.92288 13.8993L7.66811 13.8487C7.69358 13.6715 7.74454 13.5196 7.77002 13.3424L8.02479 13.393C7.99932 13.5702 7.97384 13.7221 7.92288 13.8993ZM32.0247 13.6968C31.9993 13.5196 31.9483 13.3677 31.9228 13.2158L32.1776 13.1651C32.2286 13.317 32.254 13.4943 32.2795 13.6715L32.0247 13.6968ZM8.15218 12.912L7.89741 12.8614C7.94836 12.6841 7.97384 12.5322 8.02479 12.3803L8.27957 12.4563C8.25409 12.5829 8.20314 12.7601 8.15218 12.912ZM31.7954 12.7095C31.7445 12.5576 31.719 12.3803 31.6681 12.2284L31.9228 12.1525C31.9738 12.3044 32.0247 12.4816 32.0502 12.6335L31.7954 12.7095ZM8.43244 11.95L8.17766 11.874C8.22862 11.7221 8.27957 11.5449 8.33053 11.393L8.5853 11.4689C8.53435 11.6208 8.48339 11.7727 8.43244 11.95ZM31.5152 11.7474C31.4642 11.5955 31.4133 11.4183 31.3623 11.2664L31.6171 11.1905C31.6681 11.3424 31.719 11.5196 31.77 11.6715L31.5152 11.7474ZM8.73817 10.9879L8.48339 10.8867C8.53435 10.7348 8.5853 10.5576 8.66174 10.4057L8.89104 10.4816C8.84008 10.6588 8.78912 10.8107 8.73817 10.9879ZM31.2095 10.7854C31.1585 10.6335 31.1075 10.4563 31.0311 10.3044L31.2604 10.2284C31.3114 10.3803 31.3878 10.5576 31.4388 10.7095L31.2095 10.7854ZM9.06938 10.0259L8.84008 9.92464C8.89104 9.77274 8.96747 9.59553 9.01842 9.44363L9.24772 9.5449C9.19677 9.72211 9.14581 9.87401 9.06938 10.0259ZM30.8528 9.84869C30.8018 9.69679 30.7254 9.5449 30.6744 9.393L30.9037 9.29173C30.9802 9.44363 31.0311 9.59553 31.1075 9.77274L30.8528 9.84869ZM9.45155 9.0892L9.22225 8.98793C9.29868 8.83604 9.34963 8.68414 9.42607 8.53224L9.65537 8.6335C9.60441 8.7854 9.52798 8.9373 9.45155 9.0892ZM30.4706 8.91198C30.3942 8.76009 30.3432 8.60819 30.2668 8.45629L30.4961 8.35502C30.5725 8.50692 30.6489 8.65882 30.6999 8.81072L30.4706 8.91198ZM9.88467 8.17781L9.65537 8.07654C9.7318 7.92464 9.80823 7.77274 9.88467 7.62085L10.114 7.74743C10.0375 7.87401 9.9611 8.02591 9.88467 8.17781ZM30.0375 8.00059C29.961 7.84869 29.8846 7.69679 29.8082 7.5449L30.0375 7.41831C30.1139 7.57021 30.1903 7.72211 30.2668 7.87401L30.0375 8.00059ZM10.3433 7.29173L10.114 7.16515C10.1904 7.01325 10.2923 6.86135 10.3687 6.73477L10.598 6.86135C10.5216 6.98793 10.4197 7.13983 10.3433 7.29173ZM29.5534 7.11452C29.477 6.96262 29.3751 6.81072 29.2986 6.68414L29.5279 6.55755C29.6044 6.70945 29.7063 6.86135 29.7827 6.98793L29.5534 7.11452ZM10.8528 6.43097L10.649 6.30439C10.7509 6.15249 10.8273 6.02591 10.9293 5.87401L11.1331 6.02591C11.0312 6.12717 10.9547 6.27907 10.8528 6.43097ZM29.0184 6.25376C28.9165 6.10186 28.84 5.97528 28.7381 5.82338L28.9419 5.67148C29.0438 5.82338 29.1203 5.94996 29.2222 6.10186L29.0184 6.25376ZM11.4133 5.59553L11.2095 5.44363C11.3114 5.29173 11.4133 5.16515 11.5152 5.03857L11.7191 5.19047C11.6171 5.31705 11.5152 5.44363 11.4133 5.59553ZM28.4579 5.41831C28.356 5.29173 28.254 5.13983 28.1521 5.01325L28.356 4.86135C28.4579 4.98793 28.5598 5.13983 28.6617 5.26642L28.4579 5.41831ZM12.0248 4.7854L11.821 4.6335C11.9229 4.50692 12.0503 4.38034 12.1522 4.22844L12.356 4.38034C12.2286 4.50692 12.1267 4.65882 12.0248 4.7854ZM27.8464 4.6335C27.7445 4.50692 27.6426 4.38034 27.5152 4.25376L27.719 4.07654C27.8209 4.20312 27.9483 4.32971 28.0502 4.45629L27.8464 4.6335ZM12.6872 4.02591L12.4834 3.84869C12.6108 3.72211 12.7127 3.59553 12.8401 3.46895L13.0184 3.64616C12.9165 3.77274 12.7891 3.89933 12.6872 4.02591ZM27.184 3.87401C27.0566 3.74743 26.9547 3.62085 26.8273 3.51958L27.0056 3.34237C27.133 3.46895 27.2349 3.59553 27.3623 3.6968L27.184 3.87401ZM13.4006 3.29173L13.2222 3.11452C13.3496 2.98793 13.477 2.88667 13.6044 2.76009L13.7828 2.96262C13.6299 3.06388 13.5025 3.19047 13.4006 3.29173ZM26.4706 3.16515C26.3432 3.06388 26.2158 2.9373 26.0884 2.83604L26.2413 2.6335C26.3687 2.73477 26.4961 2.86135 26.6235 2.96262L26.4706 3.16515ZM14.1394 2.6335L13.9866 2.43097C14.114 2.32971 14.2668 2.22844 14.3942 2.12718L14.5471 2.32971C14.4197 2.43097 14.2668 2.53224 14.1394 2.6335ZM25.6808 2.50692C25.5534 2.40566 25.4005 2.30439 25.2732 2.20312L25.426 2.00059C25.5534 2.10186 25.7063 2.20312 25.8337 2.30439L25.6808 2.50692ZM14.9547 2.05123L14.8019 1.84869C14.9547 1.74743 15.0821 1.67148 15.235 1.57021L15.3878 1.77275C15.235 1.87401 15.1076 1.94996 14.9547 2.05123ZM24.8656 1.92464C24.7127 1.82338 24.5853 1.74743 24.4324 1.67148L24.5598 1.44363C24.7127 1.51958 24.8656 1.62085 24.9929 1.72211L24.8656 1.92464ZM15.821 1.51958L15.6936 1.29173C15.8464 1.21578 15.9993 1.13983 16.1522 1.06388L16.2541 1.29173C16.1267 1.36768 15.9738 1.44363 15.821 1.51958ZM23.9993 1.44363C23.8464 1.36768 23.6936 1.29173 23.5407 1.21578L23.6426 0.987935C23.7955 1.06388 23.9484 1.13983 24.1012 1.21578L23.9993 1.44363ZM16.7127 1.0892L16.6108 0.861353C16.7636 0.785403 16.942 0.734771 17.0949 0.684138L17.1713 0.911986C17.0439 0.987935 16.891 1.03857 16.7127 1.0892ZM23.0821 1.01325C22.9292 0.962619 22.7764 0.886669 22.598 0.836036L22.6745 0.582872C22.8273 0.633505 23.0057 0.684138 23.1586 0.760087L23.0821 1.01325ZM17.6808 0.760087L17.6044 0.506922C17.7573 0.456289 17.9356 0.405657 18.114 0.38034L18.1649 0.633505C17.9866 0.684138 17.8337 0.73477 17.6808 0.760087ZM22.1394 0.709454C21.9866 0.658821 21.8082 0.633505 21.6554 0.608188L21.7063 0.355024C21.8847 0.38034 22.0375 0.430973 22.2159 0.481606L22.1394 0.709454ZM18.649 0.557555L18.598 0.304391C18.7764 0.279074 18.9293 0.253758 19.1076 0.228441L19.1331 0.481606C18.9802 0.506922 18.8273 0.532239 18.649 0.557555ZM21.1458 0.532239C20.9929 0.506922 20.8146 0.481606 20.6363 0.481606L20.6617 0.228441C20.8401 0.253758 20.9929 0.253758 21.1713 0.279074L21.1458 0.532239ZM19.6426 0.456289V0.203125C19.821 0.203125 19.9993 0.203125 20.1522 0.203125V0.456289C19.9738 0.430973 19.821 0.430973 19.6426 0.456289Z" fill="#BDA179"/>
<path id="Vector_5" d="M20.1016 39.8737V39.6206C20.2544 39.6206 20.4073 39.5953 20.5602 39.5446L20.6366 39.7978C20.4583 39.8231 20.2799 39.8737 20.1016 39.8737ZM19.5665 39.8231C19.3882 39.7978 19.2353 39.7472 19.057 39.6712L19.1589 39.4434C19.3118 39.5193 19.4646 39.5446 19.6175 39.5953L19.5665 39.8231ZM21.1207 39.5699L20.9933 39.3421C21.1207 39.2661 21.2735 39.1902 21.4009 39.0889L21.5538 39.2915C21.4264 39.418 21.2735 39.494 21.1207 39.5699ZM18.5984 39.418C18.471 39.3168 18.3181 39.2155 18.1907 39.0889L18.3691 38.8864C18.4965 38.9877 18.6239 39.0889 18.7513 39.1902L18.5984 39.418ZM21.9614 38.9623L21.7831 38.7851C21.885 38.6839 22.0124 38.5573 22.1143 38.4307L22.3181 38.6079C22.2162 38.7092 22.0888 38.8358 21.9614 38.9623ZM17.8086 38.7345C17.7067 38.6079 17.5793 38.4813 17.4774 38.3294L17.6812 38.1775C17.7831 38.3041 17.885 38.4307 18.0124 38.5573L17.8086 38.7345ZM22.6493 38.1775L22.4455 38.0256C22.5474 37.8991 22.6239 37.7472 22.7258 37.6206L22.9296 37.7472C22.8277 37.8991 22.7512 38.051 22.6493 38.1775ZM17.1716 37.9244C17.0697 37.7978 16.9933 37.6459 16.8914 37.494L17.1207 37.3674C17.1971 37.5193 17.299 37.6459 17.4009 37.7978L17.1716 37.9244ZM23.2098 37.3168L22.9805 37.1902C23.057 37.0383 23.1334 36.9117 23.2098 36.7598L23.4391 36.8864C23.3627 37.013 23.2863 37.1649 23.2098 37.3168ZM16.6366 37.0383C16.5602 36.8864 16.4837 36.7345 16.4073 36.5826L16.6366 36.4813C16.713 36.6332 16.7895 36.7851 16.8659 36.937L16.6366 37.0383ZM23.6684 36.4054L23.4391 36.3041C23.5156 36.1522 23.5665 36.0003 23.643 35.8484L23.8723 35.9497C23.8213 36.1016 23.7449 36.2535 23.6684 36.4054ZM16.2035 36.1269C16.127 35.975 16.0761 35.8231 15.9997 35.6459L16.229 35.5446C16.3054 35.6965 16.3563 35.8484 16.4328 36.0003L16.2035 36.1269ZM24.0761 35.4687L23.8468 35.3674C23.8977 35.2155 23.9742 35.0636 24.0251 34.8864L24.2544 34.9623C24.2035 35.1649 24.1525 35.3168 24.0761 35.4687ZM15.7958 35.1902C15.7449 35.0383 15.6684 34.8864 15.6175 34.7092L15.8468 34.6332C15.8977 34.7851 15.9742 34.9623 16.0251 35.1142L15.7958 35.1902ZM24.4328 34.5067L24.2035 34.4307C24.2544 34.2788 24.3054 34.1269 24.3563 33.9497L24.6111 34.0256C24.5602 34.2029 24.4837 34.3548 24.4328 34.5067ZM15.4646 34.2282C15.4137 34.0763 15.3627 33.8991 15.3118 33.7472L15.5665 33.6712C15.6175 33.8231 15.6684 34.0003 15.7194 34.1522L15.4646 34.2282ZM24.764 33.5446L24.5092 33.4687C24.5602 33.3168 24.6111 33.1396 24.6621 32.9877L24.9169 33.0636C24.8404 33.2155 24.8149 33.3927 24.764 33.5446ZM15.1589 33.2661C15.1079 33.1142 15.057 32.937 15.0315 32.7851L15.2863 32.7092C15.3372 32.8611 15.3882 33.0383 15.4137 33.1902L15.1589 33.2661ZM25.0188 32.5573L24.764 32.4813C24.8149 32.3294 24.8404 32.1522 24.8914 32.0003L25.1462 32.051C25.1207 32.2535 25.0697 32.4054 25.0188 32.5573ZM14.8786 32.2788C14.8277 32.1269 14.8022 31.9497 14.7513 31.7725L15.006 31.7218C15.057 31.8991 15.0825 32.051 15.1334 32.2029L14.8786 32.2788ZM25.2735 31.5699L25.0188 31.5193C25.0442 31.3674 25.0952 31.1902 25.1207 31.0383L25.3756 31.0889C25.35 31.2408 25.3245 31.418 25.2735 31.5699ZM14.6493 31.2915C14.6239 31.1396 14.5729 30.9623 14.5474 30.7851L14.8022 30.7345C14.8277 30.9117 14.8786 31.0636 14.9041 31.2155L14.6493 31.2915ZM25.5029 30.5826L25.2481 30.532C25.2735 30.3801 25.3245 30.2029 25.35 30.0256L25.6049 30.0763C25.5539 30.2535 25.5284 30.4307 25.5029 30.5826ZM14.4455 30.2788C14.42 30.1016 14.3691 29.9497 14.3436 29.7725L14.5984 29.7218C14.6239 29.8991 14.6493 30.051 14.7003 30.2282L14.4455 30.2788ZM25.6813 29.5953L25.4265 29.5446C25.452 29.3927 25.4775 29.2155 25.5029 29.0383L25.7577 29.0889C25.7322 29.2661 25.7068 29.418 25.6813 29.5953ZM14.2672 29.2915C14.2417 29.1142 14.2162 28.9623 14.1907 28.7851L14.4455 28.7345C14.471 28.9117 14.4965 29.0636 14.522 29.2408L14.2672 29.2915ZM25.8596 28.5826L25.6049 28.532C25.6303 28.3548 25.6558 28.2029 25.6813 28.0256L25.9361 28.051C25.9106 28.2535 25.8851 28.4307 25.8596 28.5826ZM14.1143 28.2788C14.0888 28.1016 14.0634 27.9497 14.0379 27.7725L14.2927 27.7472C14.3181 27.9244 14.3436 28.0763 14.3691 28.2535L14.1143 28.2788ZM25.987 27.5699L25.7322 27.5446C25.7577 27.3674 25.7832 27.2155 25.8087 27.0383L26.0635 27.0636C26.038 27.2408 26.0125 27.418 25.987 27.5699ZM13.9614 27.2661C13.936 27.0889 13.9105 26.937 13.9105 26.7598L14.1653 26.7345C14.1907 26.9117 14.2162 27.0636 14.2162 27.2408L13.9614 27.2661ZM26.1144 26.5826L25.8596 26.5573C25.8851 26.3801 25.8851 26.2282 25.9106 26.051L26.1654 26.0763C26.1654 26.2282 26.1399 26.4054 26.1144 26.5826ZM13.8341 26.2788C13.8086 26.1016 13.8086 25.9497 13.7831 25.7725L14.0379 25.7472C14.0634 25.9244 14.0634 26.0763 14.0888 26.2535L13.8341 26.2788ZM26.2163 25.5699L25.9615 25.5446C25.987 25.3674 25.987 25.2155 26.0125 25.0383L26.2673 25.0636C26.2673 25.2155 26.2418 25.3927 26.2163 25.5699ZM13.7576 25.2661C13.7321 25.0889 13.7321 24.937 13.7067 24.7598L13.9614 24.7345C13.9869 24.9117 13.9869 25.0636 14.0124 25.2408L13.7576 25.2661ZM26.3182 24.5573L26.0635 24.5319C26.0635 24.3547 26.0889 24.2028 26.0889 24.0256L26.3437 24.0509C26.3437 24.2281 26.3182 24.38 26.3182 24.5573ZM13.6557 24.2535C13.6557 24.0762 13.6302 23.9243 13.6302 23.7471L13.885 23.7218C13.885 23.899 13.9105 24.0509 13.9105 24.2281L13.6557 24.2535ZM26.3692 23.5446L26.1144 23.5193C26.1144 23.3421 26.1399 23.1902 26.1399 23.013H26.3947C26.3947 23.1902 26.3947 23.3674 26.3692 23.5446ZM13.6048 23.2408C13.6048 23.0636 13.5793 22.9117 13.5793 22.7345H13.8341C13.8341 22.9117 13.8595 23.0636 13.8595 23.2408H13.6048ZM26.4201 22.5319H26.1654C26.1654 22.3547 26.1908 22.2028 26.1908 22.0256H26.4456C26.4456 22.1775 26.4456 22.3547 26.4201 22.5319ZM13.5538 22.2281C13.5538 22.0509 13.5538 21.899 13.5283 21.7218H13.7831C13.7831 21.899 13.7831 22.0509 13.8086 22.2281H13.5538ZM26.4711 21.5193H26.2163C26.2163 21.3421 26.2163 21.1902 26.2163 21.013H26.4711C26.4711 21.1649 26.4711 21.3421 26.4711 21.5193ZM13.5283 21.2155C13.5283 21.0383 13.5283 20.8864 13.5283 20.7092H13.7831C13.7831 20.8864 13.7831 21.0383 13.7831 21.2155H13.5283ZM26.4711 20.5066H26.2163C26.2163 20.3294 26.2163 20.1775 26.2163 20.0003C26.2163 19.8737 26.2163 19.7218 26.2163 19.5952H26.4711C26.4711 19.7218 26.4711 19.8737 26.4711 20.0003C26.4711 20.1522 26.4711 20.3294 26.4711 20.5066ZM13.5283 20.2028V20.0003V19.6965H13.7831V20.0003V20.2028H13.5283ZM13.7831 19.1902H13.5283C13.5283 19.013 13.5283 18.8611 13.5283 18.6838H13.7831C13.7831 18.8357 13.7831 19.013 13.7831 19.1902ZM26.2163 19.0889C26.2163 18.9117 26.2163 18.7598 26.2163 18.5826H26.4711C26.4711 18.7598 26.4711 18.9117 26.4711 19.0889H26.2163ZM13.8086 18.1775H13.5538C13.5538 18.0003 13.5538 17.8484 13.5793 17.6712H13.8341C13.8086 17.8231 13.8086 18.0003 13.8086 18.1775ZM26.1908 18.0762C26.1908 17.899 26.1908 17.7471 26.1654 17.5699H26.4201C26.4201 17.7471 26.4201 17.899 26.4456 18.0762H26.1908ZM13.8341 17.1649H13.5793C13.5793 16.9876 13.6048 16.8357 13.6048 16.6585L13.8595 16.6838C13.8595 16.8104 13.8341 16.9876 13.8341 17.1649ZM26.1654 17.0636C26.1654 16.8864 26.1399 16.7345 26.1399 16.5573L26.3947 16.5319C26.3947 16.7092 26.4201 16.8611 26.4201 17.0383L26.1654 17.0636ZM13.885 16.1522L13.6302 16.1269C13.6302 15.9497 13.6557 15.7978 13.6557 15.6206L13.9105 15.6459C13.9105 15.8231 13.9105 15.975 13.885 16.1522ZM26.0889 16.0509C26.0889 15.8737 26.0635 15.7218 26.0635 15.5446L26.3182 15.5193C26.3182 15.6965 26.3437 15.8484 26.3437 16.0256L26.0889 16.0509ZM13.9614 15.1395L13.7067 15.1142C13.7321 14.937 13.7321 14.7851 13.7576 14.6079L14.0124 14.6332C13.9869 14.8104 13.9869 14.9623 13.9614 15.1395ZM26.0125 15.0383C25.987 14.8611 25.987 14.7092 25.9615 14.5319L26.2163 14.5066C26.2418 14.6838 26.2418 14.8357 26.2673 15.013L26.0125 15.0383ZM14.0634 14.1269L13.8086 14.1016C13.8341 13.9243 13.8341 13.7724 13.8595 13.5952L14.1143 13.6205C14.0888 13.7978 14.0634 13.975 14.0634 14.1269ZM25.9361 14.0256C25.9106 13.8484 25.9106 13.6965 25.8851 13.5193L26.1399 13.494C26.1654 13.6712 26.1654 13.8231 26.1908 14.0003L25.9361 14.0256ZM14.1653 13.1395L13.9105 13.1142C13.936 12.937 13.9614 12.7851 13.9614 12.6079L14.2162 12.6332C14.2162 12.7851 14.1907 12.9623 14.1653 13.1395ZM25.8087 13.0383C25.7832 12.8611 25.7577 12.7092 25.7577 12.5319L26.0125 12.5066C26.038 12.6838 26.0635 12.8357 26.0635 13.013L25.8087 13.0383ZM14.2927 12.1269L14.0379 12.1016C14.0634 11.9243 14.0888 11.7724 14.1143 11.5952L14.3691 11.6205C14.3436 11.7978 14.3181 11.9497 14.2927 12.1269ZM25.6813 12.0256C25.6558 11.8484 25.6303 11.6965 25.6049 11.5193L25.8596 11.4687C25.8851 11.6459 25.9106 11.7978 25.9361 11.975L25.6813 12.0256ZM14.4455 11.1395L14.1907 11.0889C14.2162 10.9117 14.2417 10.7598 14.2672 10.5826L14.522 10.6332C14.4965 10.7851 14.471 10.9623 14.4455 11.1395ZM25.5284 11.0383C25.5029 10.8611 25.4775 10.7092 25.452 10.5319L25.7068 10.4813C25.7322 10.6585 25.7577 10.8104 25.7832 10.9876L25.5284 11.0383ZM14.6239 10.1269L14.3691 10.0762C14.3946 9.89903 14.42 9.74713 14.471 9.56992L14.7258 9.62055C14.6748 9.79776 14.6493 9.97498 14.6239 10.1269ZM25.35 10.0509C25.3245 9.87371 25.299 9.72182 25.2481 9.5446L25.5029 9.49397C25.5284 9.67118 25.5794 9.82308 25.6049 10.0003L25.35 10.0509ZM14.8277 9.13954L14.5729 9.0889C14.5984 8.91169 14.6493 8.75979 14.6748 8.58257L14.9296 8.63321C14.8786 8.81042 14.8532 8.98764 14.8277 9.13954ZM25.1716 9.03827C25.1462 8.86106 25.0952 8.70916 25.0697 8.55726L25.3245 8.50663C25.35 8.65852 25.401 8.83574 25.4265 9.01295L25.1716 9.03827ZM15.0315 8.15219L14.7767 8.10156C14.8277 7.92435 14.8532 7.77245 14.9041 7.62055L15.1589 7.67118C15.1334 7.82308 15.0825 8.0003 15.0315 8.15219ZM24.9423 8.07625C24.8914 7.89903 24.8659 7.74713 24.8149 7.59523L25.0697 7.51928C25.1207 7.67118 25.1462 7.8484 25.1971 8.0003L24.9423 8.07625ZM15.2863 7.19017L15.0315 7.11422C15.0825 6.93701 15.1334 6.78511 15.1589 6.63321L15.4137 6.70916C15.3882 6.86106 15.3372 7.01295 15.2863 7.19017ZM24.6876 7.0889C24.6366 6.93701 24.5856 6.75979 24.5602 6.60789L24.8149 6.53194C24.8659 6.68384 24.9169 6.86106 24.9678 7.01295L24.6876 7.0889ZM15.5665 6.20283L15.3118 6.12688C15.3627 5.97498 15.4137 5.79776 15.4646 5.64587L15.6939 5.72182C15.6684 5.89903 15.6175 6.05093 15.5665 6.20283ZM24.3818 6.12688C24.3309 5.97498 24.2799 5.79776 24.229 5.64587L24.4583 5.56992C24.5092 5.72182 24.5602 5.89903 24.6111 6.05093L24.3818 6.12688ZM15.8977 5.26612L15.6684 5.19017C15.7194 5.03827 15.7958 4.86106 15.8468 4.70916L16.0761 4.81042C16.0251 4.93701 15.9487 5.0889 15.8977 5.26612ZM24.0761 5.16485C24.0251 5.01295 23.9487 4.83574 23.8977 4.68384L24.127 4.58257C24.178 4.73447 24.2544 4.88637 24.3054 5.06359L24.0761 5.16485ZM16.2544 4.32941L16.0251 4.22814C16.1016 4.07625 16.1525 3.92435 16.229 3.77245L16.4583 3.87371C16.4073 4.0003 16.3309 4.15219 16.2544 4.32941ZM23.6939 4.22814C23.6175 4.07625 23.5665 3.92435 23.4901 3.77245L23.7194 3.67118C23.7958 3.82308 23.8468 3.97498 23.9232 4.12688L23.6939 4.22814ZM16.6876 3.41802L16.4583 3.29144C16.5347 3.13954 16.6111 2.98764 16.6876 2.83574L16.9169 2.96232C16.8404 3.11422 16.764 3.26612 16.6876 3.41802ZM23.2608 3.31675C23.1844 3.16485 23.1079 3.01295 23.0315 2.88637L23.2608 2.75979C23.3372 2.91169 23.4137 3.06359 23.4901 3.21549L23.2608 3.31675ZM17.1716 2.53194L16.9423 2.40536C17.0442 2.25346 17.1207 2.10156 17.2226 1.97498L17.4264 2.12688C17.35 2.25346 17.2735 2.38004 17.1716 2.53194ZM22.7767 2.45599C22.6748 2.30409 22.5984 2.15219 22.4965 2.02561L22.7003 1.87371C22.8022 2.0003 22.9041 2.15219 22.9805 2.30409L22.7767 2.45599ZM17.7321 1.72182L17.5283 1.56992C17.6302 1.44333 17.7576 1.29144 17.8595 1.19017L18.0379 1.36738C17.9614 1.44333 17.8595 1.56992 17.7321 1.72182ZM22.1907 1.64587C22.0888 1.51928 21.9614 1.3927 21.8595 1.29144L22.0379 1.11422C22.1653 1.2408 22.2672 1.36738 22.3946 1.49397L22.1907 1.64587ZM18.42 1.01295L18.2672 0.810423C18.3946 0.68384 18.5474 0.582575 18.7003 0.506625L18.8277 0.709157C18.7003 0.785106 18.5474 0.886372 18.42 1.01295ZM21.5028 0.937005C21.3755 0.835739 21.2481 0.734473 21.0952 0.658524L21.2226 0.430676C21.3755 0.506625 21.5028 0.607891 21.6557 0.734473L21.5028 0.937005ZM19.2608 0.506625L19.1589 0.253461C19.3372 0.177511 19.4901 0.152195 19.6684 0.126879L19.6939 0.380043C19.5665 0.405359 19.4137 0.430676 19.2608 0.506625ZM20.6621 0.455992C20.5092 0.405359 20.3563 0.380043 20.2035 0.354727L20.229 0.101562C20.4073 0.126879 20.5856 0.152195 20.7385 0.202828L20.6621 0.455992Z" fill="#BDA179"/>
<path id="Vector_6" d="M33.5032 5.69619H32.9937V5.44336H33.5032V5.69619ZM32.4841 5.69619H31.9746V5.44336H32.4841V5.69619ZM31.465 5.69619H30.9555V5.44336H31.465V5.69619ZM30.4459 5.69619H29.9363V5.44336H30.4459V5.69619ZM29.4268 5.69619H28.9172V5.44336H29.4268V5.69619ZM28.4077 5.69619H27.8981V5.44336H28.4077V5.69619ZM27.3886 5.69619H26.879V5.44336H27.3886V5.69619ZM26.3695 5.69619H25.8599V5.44336H26.3695V5.69619ZM25.3504 5.69619H24.8408V5.44336H25.3504V5.69619ZM24.3312 5.69619H23.8216V5.44336H24.3312V5.69619ZM23.3121 5.69619H22.8025V5.44336H23.3121V5.69619ZM22.293 5.69619H21.7834V5.44336H22.293V5.69619ZM21.2739 5.69619H20.7643V5.44336H21.2739V5.69619ZM20.2548 5.69619H19.7452V5.44336H20.2548V5.69619ZM19.2357 5.69619H18.7261V5.44336H19.2357V5.69619ZM18.2166 5.69619H17.707V5.44336H18.2166V5.69619ZM17.1974 5.69619H16.6879V5.44336H17.1974V5.69619ZM16.1783 5.69619H15.6688V5.44336H16.1783V5.69619ZM15.1592 5.69619H14.6497V5.44336H15.1592V5.69619ZM14.1401 5.69619H13.6306V5.44336H14.1401V5.69619ZM13.121 5.69619H12.6115V5.44336H13.121V5.69619ZM12.1019 5.69619H11.5924V5.44336H12.1019V5.69619ZM11.0828 5.69619H10.5732V5.44336H11.0828V5.69619ZM10.0637 5.69619H9.55413V5.44336H10.0637V5.69619ZM9.04458 5.69619H8.53503V5.44336H9.04458V5.69619ZM8.02547 5.69619H7.51592V5.44336H8.02547V5.69619ZM7.00636 5.69619H6.57324V5.44336H7.00636V5.69619Z" fill="#BDA179"/>
<path id="Vector_7" d="M39.1844 15.1649H38.6748V14.9121H39.1844V15.1649ZM38.1653 15.1649H37.6557V14.9121H38.1653V15.1649ZM37.1462 15.1649H36.6366V14.9121H37.1462V15.1649ZM36.1271 15.1649H35.6175V14.9121H36.1271V15.1649ZM35.108 15.1649H34.5984V14.9121H35.108V15.1649ZM34.0888 15.1649H33.5793V14.9121H34.0888V15.1649ZM33.0697 15.1649H32.5602V14.9121H33.0697V15.1649ZM32.0506 15.1649H31.5411V14.9121H32.0506V15.1649ZM31.0315 15.1649H30.522V14.9121H31.0315V15.1649ZM30.0124 15.1649H29.5029V14.9121H30.0124V15.1649ZM28.9933 15.1649H28.4838V14.9121H28.9933V15.1649ZM27.9742 15.1649H27.4646V14.9121H27.9742V15.1649ZM26.9551 15.1649H26.4455V14.9121H26.9551V15.1649ZM25.936 15.1649H25.4264V14.9121H25.936V15.1649ZM24.9168 15.1649H24.4073V14.9121H24.9168V15.1649ZM23.8977 15.1649H23.3882V14.9121H23.8977V15.1649ZM22.8786 15.1649H22.3691V14.9121H22.8786V15.1649ZM21.8595 15.1649H21.3499V14.9121H21.8595V15.1649ZM20.8404 15.1649H20.3308V14.9121H20.8404V15.1649ZM19.8213 15.1649H19.3117V14.9121H19.8213V15.1649ZM18.8022 15.1649H18.2926V14.9121H18.8022V15.1649ZM17.7831 15.1649H17.2735V14.9121H17.7831V15.1649ZM16.764 15.1649H16.2544V14.9121H16.764V15.1649ZM15.7448 15.1649H15.2353V14.9121H15.7448V15.1649ZM14.7257 15.1649H14.2162V14.9121H14.7257V15.1649ZM13.7066 15.1649H13.1971V14.9121H13.7066V15.1649ZM12.6875 15.1649H12.178V14.9121H12.6875V15.1649ZM11.6684 15.1649H11.1589V14.9121H11.6684V15.1649ZM10.6493 15.1649H10.1398V14.9121H10.6493V15.1649ZM9.6302 15.1649H9.12064V14.9121H9.6302V15.1649ZM8.61109 15.1649H8.10154V14.9121H8.61109V15.1649ZM7.59198 15.1649H7.08243V14.9121H7.59198V15.1649ZM6.57287 15.1649H6.06332V14.9121H6.57287V15.1649ZM5.55377 15.1649H5.04421V14.9121H5.55377V15.1649ZM4.53466 15.1649H4.0251V14.9121H4.53466V15.1649ZM3.51555 15.1649H3.006V14.9121H3.51555V15.1649ZM2.49644 15.1649H1.98688V14.9121H2.49644V15.1649ZM1.47733 15.1649H0.967773V14.9121H1.47733V15.1649Z" fill="#BDA179"/>
<path id="Vector_8" d="M39.2606 24.7343H38.7511V24.4812H39.2606V24.7343ZM38.2415 24.7343H37.7319V24.4812H38.2415V24.7343ZM37.2224 24.709H36.7128V24.4559H37.2224V24.709ZM36.2033 24.709H35.6937V24.4559H36.2033V24.709ZM35.1842 24.709H34.6746V24.4559H35.1842V24.709ZM34.1651 24.6837H33.6555V24.4306H34.1651V24.6837ZM33.146 24.6837H32.6364V24.4306H33.146V24.6837ZM32.1268 24.6584H31.6173V24.4053H32.1268V24.6584ZM31.1077 24.6584H30.5982V24.4053H31.1077V24.6584ZM30.0886 24.6331H29.5791V24.38H30.0886V24.6331ZM29.0695 24.6331H28.56V24.38H29.0695V24.6331ZM28.0504 24.6331H27.5409V24.38H28.0504V24.6331ZM27.0313 24.6077H26.5218V24.3547H27.0313V24.6077ZM26.0122 24.6077H25.5026V24.3547H26.0122V24.6077ZM24.993 24.5824H24.4834V24.3293H24.993V24.5824ZM23.9739 24.5824H23.4643V24.3293H23.9739V24.5824ZM22.9548 24.5824H22.4452V24.3293H22.9548V24.5824ZM21.9357 24.5571H21.4261V24.304H21.9357V24.5571ZM20.9166 24.5571H20.407V24.304H20.9166V24.5571ZM19.8974 24.5318H19.3879V24.2787H19.8974V24.5318ZM18.8783 24.5318H18.3688V24.2787H18.8783V24.5318ZM17.8592 24.5065H17.3497V24.2534H17.8592V24.5065ZM16.8401 24.5065H16.3306V24.2534H16.8401V24.5065ZM15.821 24.5065H15.3115V24.2534H15.821V24.5065ZM14.8019 24.4812H14.2924V24.2281H14.8019V24.4812ZM13.7828 24.4812H13.2732V24.2281H13.7828V24.4812ZM12.7637 24.4559H12.2541V24.2028H12.7637V24.4559ZM11.7446 24.4559H11.235V24.2028H11.7446V24.4559ZM10.7255 24.4306H10.2159V24.1775H10.7255V24.4306ZM9.70636 24.4306H9.19681V24.1775H9.70636V24.4306ZM8.68726 24.4306H8.1777V24.1775H8.68726V24.4306ZM7.66815 24.4053H7.15859V24.1522H7.66815V24.4053ZM6.64904 24.4053H6.13948V24.1522H6.64904V24.4053ZM5.62993 24.38H5.12038V24.1269H5.62993V24.38ZM4.61082 24.38H4.10127V24.1269H4.61082V24.38ZM3.59171 24.3547H3.08216V24.1016H3.59171V24.3547ZM2.57261 24.3547H2.06305V24.1016H2.57261V24.3547ZM1.5535 24.3547H1.04395V24.1016H1.5535V24.3547Z" fill="#BDA179"/>
<path id="Vector_9" d="M33.2225 34.7587H32.713V34.5059H33.2225V34.7587ZM32.2034 34.7587H31.6938V34.5059H32.2034V34.7587ZM31.1843 34.7587H30.6747V34.5059H31.1843V34.7587ZM30.1652 34.7587H29.6556V34.5059H30.1652V34.7587ZM29.1461 34.7587H28.6365V34.5059H29.1461V34.7587ZM28.127 34.7587H27.6174V34.5059H28.127V34.7587ZM27.1079 34.7587H26.5983V34.5059H27.1079V34.7587ZM26.0888 34.7587H25.5792V34.5059H26.0888V34.7587ZM25.0697 34.7587H24.5602V34.5059H25.0697V34.7587ZM24.0506 34.7587H23.5411V34.5059H24.0506V34.7587ZM23.0315 34.7587H22.522V34.5059H23.0315V34.7587ZM22.0124 34.7587H21.5029V34.5059H22.0124V34.7587ZM20.9933 34.7587H20.4838V34.5059H20.9933V34.7587ZM19.9742 34.7587H19.4647V34.5059H19.9742V34.7587ZM18.9551 34.7587H18.4455V34.5059H18.9551V34.7587ZM17.936 34.7587H17.4264V34.5059H17.936V34.7587ZM16.9169 34.7587H16.4073V34.5059H16.9169V34.7587ZM15.8978 34.7587H15.3882V34.5059H15.8978V34.7587ZM14.8787 34.7587H14.3691V34.5059H14.8787V34.7587ZM13.8596 34.7587H13.35V34.5059H13.8596V34.7587ZM12.8404 34.7587H12.3309V34.5059H12.8404V34.7587ZM11.8213 34.7587H11.3118V34.5059H11.8213V34.7587ZM10.8022 34.7587H10.2927V34.5059H10.8022V34.7587ZM9.78312 34.7587H9.27357V34.5059H9.78312V34.7587ZM8.76401 34.7587H8.25446V34.5059H8.76401V34.7587ZM7.74491 34.7587H7.23535V34.5059H7.74491V34.7587Z" fill="#BDA179"/>
</g>
</g>
</g>
</svg>
