<svg width="250" height="54" viewBox="0 0 250 54" fill="none" xmlns="http://www.w3.org/2000/svg">
<g id="&#208;&#145;&#208;&#181;&#208;&#183;&#209;&#139;&#208;&#188;&#209;&#143;&#208;&#189;&#208;&#189;&#209;&#139;&#208;&#185;-1" clip-path="url(#clip0_186_1124)">
<g id="&#208;&#161;&#208;&#187;&#208;&#190;&#208;&#185;_x0020_1">
<g id="_1877144591168">
<path id="Vector" d="M0 0V18.1949C0 32.6218 7.90531 45.6465 20.6322 52.1842C20.9057 52.3264 21.1845 52.4657 21.4662 52.6081L22.9893 53.3695L24.5127 52.6081C24.7941 52.4685 25.0731 52.3264 25.3466 52.1842C38.0735 45.6465 45.9788 32.6218 45.9788 18.192V0L0 0ZM22.9893 45.7135C21.2142 44.74 19.5622 43.6056 18.0417 42.3373V23.7699L23.3728 18.4388L28.7495 23.7779V41.6375C27.0119 43.1902 25.0863 44.563 22.9893 45.7137V45.7135ZM39.157 18.192C39.157 23.4345 37.8857 28.4491 35.569 32.8766V20.9379L23.3516 8.81157L11.2172 20.9458V34.3405C8.38555 29.5698 6.81943 24.0216 6.81943 18.1946V6.82186H39.157V18.1946V18.1918V18.192Z" fill="#BDA179"/>
<path id="Vector_2" d="M56.3537 30.1439L65.313 6.41455H72.1617L81.121 30.1439H75.0498L73.1619 24.9605H64.3155L62.3899 30.1439H56.3564H56.3535H56.3537ZM71.6793 20.7798L68.7187 12.6358L65.7582 20.7798H71.6819H71.6793Z" fill="#FFF9F3"/>
<path id="Vector_3" d="M106.365 30.1438H99.7391C99.2698 29.8972 98.9051 29.5271 98.6477 29.0337C98.3876 28.5402 98.122 27.985 97.8514 27.3684C97.4062 26.2823 97.0119 25.419 96.6661 24.7781C96.3201 24.1372 95.993 23.6492 95.6847 23.3164C95.3761 22.9841 95.0625 22.7668 94.7407 22.6676C94.419 22.5684 94.0624 22.5202 93.6681 22.5202H89.8925V30.1467H84.1162V6.37695H96.0358C97.3928 6.37695 98.6342 6.51911 99.7554 6.8032C100.879 7.0875 101.842 7.53799 102.643 8.15465C103.445 8.77131 104.062 9.54379 104.494 10.469C104.926 11.3942 105.143 12.5123 105.143 13.8183C105.143 14.7059 105.014 15.5533 104.754 16.3551C104.494 17.1569 104.119 17.8595 103.625 18.4656C103.132 19.0714 102.526 19.557 101.812 19.927C101.096 20.297 100.281 20.4956 99.3695 20.5196C100.134 20.6673 100.759 20.9329 101.239 21.3161C101.718 21.6996 102.132 22.1609 102.477 22.7053C102.823 23.2497 103.132 23.8663 103.403 24.5557C103.674 25.2475 103.958 25.9878 104.255 26.776C104.454 27.2212 104.692 27.7627 104.977 28.4036C105.261 29.0447 105.722 29.6263 106.366 30.144L106.365 30.1438ZM89.8923 17.744H94.6682C95.4083 17.744 96.0682 17.6957 96.6498 17.5966C97.2292 17.4974 97.7225 17.3202 98.1302 17.0601C98.5377 16.8 98.8462 16.4434 99.0554 15.9875C99.2646 15.5315 99.369 14.9576 99.369 14.2657C99.369 13.6248 99.259 13.1073 99.0367 12.7104C98.8141 12.3164 98.4868 12.0131 98.0553 11.8039C97.6235 11.5948 97.1058 11.4526 96.4999 11.3777C95.8938 11.3025 95.1965 11.2677 94.4082 11.2677H89.8923V17.7464V17.7438V17.744Z" fill="#FFF9F3"/>
<path id="Vector_4" d="M138.461 26.8861C137.745 27.9239 136.753 28.7874 135.482 29.4764C134.211 30.1682 132.65 30.5116 130.8 30.5116C128.727 30.5116 126.844 30.2164 125.155 29.624C123.466 29.0314 122.015 28.1974 120.805 27.1248C119.596 26.0519 118.658 24.7542 117.993 23.2363C117.325 21.7187 116.992 20.0347 116.992 18.1843C117.04 16.4813 117.4 14.8832 118.065 13.3896C118.732 11.8957 119.658 10.606 120.84 9.52012C122.026 8.43402 123.45 7.5758 125.118 6.94834C126.783 6.31824 128.652 6.00439 130.725 6.00439C132.404 6.00439 133.964 6.17873 135.407 6.5221C136.85 6.86812 138.121 7.3856 139.22 8.07742C140.317 8.76924 141.218 9.63803 141.924 10.6867C142.626 11.7351 143.077 12.9633 143.275 14.3712L137.869 15.0736C137.4 13.6657 136.475 12.6629 135.093 12.0569C133.71 11.4534 132.095 11.1504 130.242 11.1504C129.033 11.1504 127.96 11.3245 127.022 11.6679C126.083 12.0139 125.295 12.5018 124.651 13.1295C124.01 13.7596 123.528 14.5052 123.209 15.3687C122.887 16.2322 122.729 17.1707 122.729 18.1816C122.753 19.1685 122.943 20.1017 123.303 20.976C123.659 21.8529 124.171 22.6117 124.839 23.2527C125.504 23.8936 126.319 24.4058 127.282 24.7892C128.245 25.1727 129.342 25.3631 130.578 25.3631C132.329 25.3631 133.908 25.0735 135.316 24.4944C136.724 23.9149 137.711 23.0569 138.277 21.9226L138.462 20.7748H126.95V16.924H143.535V30.1391H138.464V26.8808L138.462 26.8861H138.461Z" fill="#FFF9F3"/>
<path id="Vector_5" d="M169.928 30.1438H163.302C162.832 29.8972 162.468 29.5271 162.21 29.0337C161.95 28.5402 161.685 27.985 161.414 27.3684C160.968 26.2823 160.574 25.419 160.229 24.7781C159.883 24.1372 159.555 23.6492 159.247 23.3164C158.939 22.9841 158.625 22.7668 158.303 22.6676C157.981 22.5684 157.625 22.5202 157.231 22.5202H153.455V30.1467H147.679V6.37695H159.598C160.955 6.37695 162.197 6.51911 163.318 6.8032C164.441 7.0875 165.404 7.53799 166.206 8.15465C167.008 8.77131 167.625 9.54379 168.056 10.469C168.488 11.3942 168.705 12.5123 168.705 13.8183C168.705 14.7059 168.576 15.5533 168.316 16.3551C168.056 17.1569 167.681 17.8595 167.188 18.4656C166.694 19.0714 166.088 19.557 165.375 19.927C164.659 20.297 163.844 20.4956 162.932 20.5196C163.696 20.6673 164.321 20.9329 164.801 21.3161C165.281 21.6996 165.694 22.1609 166.04 22.7053C166.386 23.2497 166.694 23.8663 166.965 24.5557C167.236 25.2475 167.52 25.9878 167.818 26.776C168.016 27.2212 168.255 27.7627 168.539 28.4036C168.824 29.0447 169.285 29.6263 169.928 30.144L169.928 30.1438ZM153.455 17.744H158.231C158.971 17.744 159.63 17.6957 160.212 17.5966C160.791 17.4974 161.285 17.3202 161.692 17.0601C162.1 16.8 162.409 16.4434 162.618 15.9875C162.827 15.5315 162.932 14.9576 162.932 14.2657C162.932 13.6248 162.822 13.1073 162.599 12.7104C162.376 12.3164 162.049 12.0131 161.618 11.8039C161.186 11.5948 160.668 11.4526 160.062 11.3777C159.456 11.3025 158.759 11.2677 157.97 11.2677H153.454V17.7464V17.7438L153.455 17.744Z" fill="#FFF9F3"/>
<path id="Vector_6" d="M171.63 18.2616C171.63 16.4114 171.986 14.7327 172.703 13.2256C173.419 11.7212 174.387 10.4315 175.61 9.35616C176.832 8.28351 178.243 7.45504 179.849 6.87563C181.453 6.29643 183.155 6.00684 184.958 6.00684C186.759 6.00684 188.462 6.29643 190.066 6.87563C191.669 7.45504 193.077 8.28351 194.287 9.35616C195.496 10.4288 196.454 11.7188 197.156 13.2256C197.859 14.7303 198.21 16.4088 198.21 18.2616C198.21 20.1147 197.859 21.7908 197.156 23.2978C196.454 24.8023 195.496 26.092 194.287 27.1673C193.077 28.24 191.669 29.0684 190.066 29.6478C188.462 30.227 186.759 30.5166 184.958 30.5166C183.155 30.5166 181.482 30.227 179.868 29.6478C178.251 29.0684 176.832 28.24 175.61 27.1673C174.387 26.0947 173.419 24.8047 172.703 23.2978C171.986 21.7932 171.63 20.1147 171.63 18.2616ZM184.958 25.5529C186.019 25.5529 186.998 25.368 187.902 24.998C188.803 24.6277 189.586 24.1155 190.254 23.4614C190.919 22.807 191.439 22.0348 191.809 21.147C192.179 20.2595 192.364 19.2968 192.364 18.259C192.364 17.2211 192.179 16.2532 191.809 15.3522C191.439 14.4512 190.922 13.6735 190.254 13.0191C189.586 12.3648 188.803 11.8526 187.902 11.4825C187.001 11.1123 186.019 10.9274 184.958 10.9274C183.895 10.9274 182.909 11.1123 181.997 11.4825C181.083 11.8526 180.294 12.3648 179.626 13.0191C178.961 13.6735 178.436 14.4512 178.052 15.3522C177.669 16.2532 177.478 17.2211 177.478 18.259C177.478 19.2968 177.669 20.2648 178.052 21.1658C178.436 22.0667 178.959 22.8392 179.626 23.4801C180.294 24.121 181.083 24.6279 181.997 24.998C182.909 25.368 183.898 25.5529 184.958 25.5529Z" fill="#FFF9F3"/>
<path id="Vector_7" d="M207.91 6.37695V19.0368C207.91 19.8518 207.985 20.6351 208.133 21.3884C208.28 22.142 208.54 22.8071 208.91 23.3863C209.28 23.9657 209.793 24.4297 210.447 24.7754C211.101 25.1215 211.946 25.2932 212.984 25.2932C214.021 25.2932 214.858 25.1215 215.502 24.7754C216.142 24.4297 216.644 23.9684 217.001 23.3863C217.357 22.8071 217.599 22.1395 217.722 21.3884C217.845 20.6351 217.907 19.8518 217.907 19.0368V6.37695H223.645V19.1118C223.645 20.6164 223.46 22.0617 223.09 23.4425C222.72 24.8261 222.122 26.041 221.294 27.0896C220.468 28.1382 219.368 28.9722 217.998 29.5889C216.628 30.2057 214.944 30.5141 212.946 30.5141C210.948 30.5141 209.261 30.2004 207.894 29.5701C206.526 28.94 205.413 28.1034 204.563 27.0521C203.71 26.0037 203.093 24.7942 202.713 23.424C202.329 22.0538 202.139 20.6164 202.139 19.112V6.37717H207.915H207.91L207.91 6.37695Z" fill="#FFF9F3"/>
<path id="Vector_8" d="M229.011 30.1439V6.41455H240.19C241.424 6.41455 242.628 6.55142 243.8 6.82206C244.972 7.09292 246.02 7.54341 246.946 8.17352C247.871 8.80384 248.611 9.62437 249.166 10.6353C249.721 11.6463 250 12.9067 250 14.4109C250 15.9153 249.758 17.2934 249.278 18.3903C248.799 19.4899 248.131 20.3882 247.281 21.0935C246.428 21.7959 245.43 22.308 244.283 22.63C243.135 22.9518 241.896 23.1127 240.563 23.1127H234.787V30.1466H229.011V30.1437L229.011 30.1439ZM234.787 18.3341H240.008C240.526 18.3341 241.038 18.2861 241.545 18.1867C242.052 18.0875 242.494 17.9105 242.877 17.6505C243.261 17.3904 243.569 17.0201 243.803 16.5403C244.036 16.0603 244.154 15.4487 244.154 14.7089C244.154 13.9203 244.031 13.301 243.784 12.8584C243.537 12.4132 243.21 12.0807 242.803 11.8581C242.395 11.6355 241.952 11.4935 241.47 11.4318C240.99 11.3701 240.502 11.3379 240.008 11.3379H234.787V18.3341H234.787Z" fill="#FFF9F3"/>
<path id="Vector_9" d="M57.3563 44.1528V40.2349H56.4688V39.5483H57.3483V38.9985C57.3483 38.2449 57.8605 37.9071 58.4397 37.8024L59.8476 37.5317V38.2557L58.5845 38.4783C58.3432 38.5158 58.1876 38.7009 58.1876 38.9423V39.551H59.5686V40.2375H58.1795V44.1555H57.3589L57.3561 44.1528H57.3563Z" fill="#FFF9F3"/>
<path id="Vector_10" d="M60.4163 39.5483C60.8132 39.5483 61.0922 39.8191 61.0814 40.2242V40.2723C61.3523 39.8674 61.8054 39.5 62.2292 39.5H63.2534V40.2427H62.2103C61.4969 40.2427 61.1189 40.8515 61.1189 41.7767V44.1499H60.2876V40.2804H59.8906V39.5456H60.4108L60.416 39.5483H60.4163Z" fill="#FFF9F3"/>
<path id="Vector_11" d="M65.9778 39.4434C67.348 39.4434 68.3618 40.4678 68.3618 41.8461C68.3618 43.2247 67.3482 44.2488 65.9778 44.2488C64.6076 44.2488 63.583 43.2247 63.583 41.8461C63.583 40.4678 64.6074 39.4434 65.9778 39.4434ZM67.5223 41.8461C67.5223 40.929 66.9244 40.2238 65.9778 40.2238C65.031 40.2238 64.4331 40.9293 64.4331 41.8461C64.4331 42.7634 65.0418 43.4684 65.9778 43.4684C66.9136 43.4684 67.5223 42.7632 67.5223 41.8461Z" fill="#FFF9F3"/>
<path id="Vector_12" d="M69.4343 44.1532V39.5489H70.2361V40.6403C70.4774 40.002 71.1157 39.4521 71.8289 39.4521C72.6011 39.4521 73.2583 39.7607 73.4997 40.7179C73.808 40.0234 74.5133 39.4521 75.2562 39.4521C76.4629 39.4521 77.0795 40.2916 77.0795 41.5091V44.1532H76.2482V41.5948C76.2482 40.812 75.9103 40.1951 75.0415 40.1951C74.1137 40.1951 73.6714 40.7071 73.6714 41.5948V44.1532H72.84V41.5948C72.84 40.812 72.5019 40.1951 71.6332 40.1951C70.7053 40.1951 70.263 40.9004 70.263 41.7771V44.1503H69.4316L69.4345 44.1532H69.4343Z" fill="#FFF9F3"/>
<path id="Vector_13" d="M84.61 44.1632C84.098 44.1632 83.9449 43.8441 83.9449 43.4767V43.0236C83.7223 43.8146 82.9608 44.249 82.1698 44.249C81.3197 44.249 80.3945 43.8628 80.3945 42.8867C80.3945 41.9106 81.3491 41.5648 82.1698 41.4493L83.9449 41.1787V40.8783C83.9449 40.2402 83.1539 40.1249 82.6604 40.1249C81.9845 40.1249 81.4912 40.3288 81.435 41.0715L80.7002 40.9937C80.7002 39.9024 81.7433 39.4492 82.6791 39.4492C83.5667 39.4492 84.7145 39.7765 84.7145 40.8679V43.4824H85.1383V44.1582H84.6074L84.61 44.1634V44.1632ZM82.1564 42.0688C81.7409 42.136 81.2285 42.388 81.2285 42.8788C81.2285 43.3694 81.7702 43.525 82.1751 43.525C83.0064 43.525 83.9424 43.1494 83.9424 42.1841V41.7686L82.1564 42.0688Z" fill="#FFF9F3"/>
<path id="Vector_14" d="M86.0947 44.1445V37.3599H86.9261V40.6127C87.1379 40.1194 87.8244 39.4435 88.7309 39.4435C90.0341 39.4327 90.8654 40.476 90.8654 41.8462C90.8654 43.2164 89.9188 44.2783 88.6074 44.2595C87.7278 44.2489 87.1218 43.7286 86.8994 43.1199V44.144H86.0974H86.0947V44.1445ZM90.0232 41.8464C90.0232 40.9291 89.4066 40.1756 88.4708 40.1756C87.5348 40.1756 86.9181 40.9291 86.9181 41.8464C86.9181 42.7635 87.5268 43.5252 88.4708 43.5252C89.4145 43.5252 90.0232 42.7529 90.0232 41.8464Z" fill="#FFF9F3"/>
<path id="Vector_15" d="M93.6919 43.5737C94.078 43.5737 94.955 43.555 94.9281 42.9463C94.9094 42.3966 93.6732 42.2223 93.2092 42.0962C92.563 41.9221 91.78 41.5653 91.78 40.7743C91.78 39.6346 92.9571 39.4521 93.8072 39.4521C94.6572 39.4521 95.6898 39.7417 95.738 41.0156L94.9953 41.1014C94.9094 40.3291 94.4159 40.1281 93.818 40.1281C93.421 40.1281 92.563 40.1468 92.5926 40.7556C92.6032 41.0641 92.8822 41.249 93.7697 41.4688C94.5312 41.6512 95.738 41.8926 95.738 42.9275C95.738 44.0672 94.542 44.2497 93.6624 44.2497C92.783 44.2497 91.6352 43.9411 91.5869 42.5604L92.3296 42.4744C92.4156 43.354 92.9866 43.5737 93.6919 43.5737Z" fill="#FFF9F3"/>
<path id="Vector_16" d="M96.2717 39.4999C96.7731 39.4999 97.1592 39.3174 97.2449 38.8242L97.3897 37.9741H98.0172L97.7571 39.5482H99.3876V40.2347H97.9209V43.5252H99.5807V44.2492H98.1809C97.591 44.2384 97.0896 43.9219 97.0896 43.1578V40.2323H96.21V39.4975H96.2688L96.2717 39.5001V39.4999Z" fill="#FFF9F3"/>
<path id="Vector_17" d="M100.624 39.5483C101.021 39.5483 101.3 39.8191 101.289 40.2242V40.2723C101.56 39.8674 102.013 39.5 102.437 39.5H103.461V40.2427H102.418C101.705 40.2427 101.327 40.8515 101.327 41.7767V44.1499H100.495V40.2804H100.099V39.5456H100.619L100.624 39.5483Z" fill="#FFF9F3"/>
<path id="Vector_18" d="M108.01 44.1632C107.497 44.1632 107.344 43.8441 107.344 43.4767V43.0236C107.122 43.8146 106.36 44.249 105.569 44.249C104.719 44.249 103.794 43.8628 103.794 42.8867C103.794 41.9106 104.749 41.5648 105.569 41.4493L107.344 41.1787V40.8783C107.344 40.2402 106.553 40.1249 106.06 40.1249C105.384 40.1249 104.891 40.3288 104.834 41.0715L104.1 40.9937C104.1 39.9024 105.143 39.4492 106.079 39.4492C106.966 39.4492 108.114 39.7765 108.114 40.8679V43.4824H108.538V44.1582H108.007L108.009 44.1634L108.01 44.1632ZM105.559 42.0688C105.143 42.136 104.631 42.388 104.631 42.8788C104.631 43.3694 105.173 43.525 105.578 43.525C106.409 43.525 107.345 43.1494 107.345 42.1841V41.7686L105.559 42.0688H105.559Z" fill="#FFF9F3"/>
<path id="Vector_19" d="M111.581 43.4982C112.219 43.4982 112.699 43.1791 112.943 42.6964L113.6 43.0451C113.3 43.7984 112.527 44.2811 111.583 44.2811C110.213 44.2811 109.188 43.2675 109.188 41.8786C109.188 40.4894 110.213 39.4463 111.583 39.4463C112.53 39.4463 113.302 39.929 113.6 40.6825L112.943 41.0311C112.702 40.5485 112.219 40.2293 111.581 40.2293C110.615 40.2293 110.036 40.9533 110.036 41.8598C110.036 42.7663 110.615 43.5009 111.581 43.5009V43.4982Z" fill="#FFF9F3"/>
<path id="Vector_20" d="M114.198 39.4999C114.7 39.4999 115.086 39.3174 115.172 38.8242L115.316 37.9741H115.944L115.684 39.5482H117.314V40.2347H115.848V43.5252H117.508V44.2492H116.108C115.518 44.2384 115.016 43.9219 115.016 43.1578V40.2323H114.137V39.4975H114.196L114.198 39.5001V39.4999Z" fill="#FFF9F3"/>
<path id="Vector_21" d="M120.307 39.4999C120.808 39.4999 121.194 39.3174 121.28 38.8242L121.425 37.9741H122.052L121.792 39.5482H123.423V40.2347H121.956V43.5252H123.616V44.2492H122.216C121.626 44.2384 121.125 43.9219 121.125 43.1578V40.2323H120.245V39.4975H120.304L120.307 39.5001V39.4999Z" fill="#FFF9F3"/>
<path id="Vector_22" d="M126.533 39.4434C127.904 39.4434 128.917 40.4678 128.917 41.8461C128.917 43.2247 127.904 44.2488 126.533 44.2488C125.163 44.2488 124.139 43.2247 124.139 41.8461C124.139 40.4678 125.163 39.4434 126.533 39.4434ZM128.078 41.8461C128.078 40.929 127.48 40.2238 126.533 40.2238C125.587 40.2238 124.989 40.9293 124.989 41.8461C124.989 42.7634 125.597 43.4684 126.533 43.4684C127.469 43.4684 128.078 42.7632 128.078 41.8461Z" fill="#FFF9F3"/>
<path id="Vector_23" d="M132.434 39.5483C132.831 39.5483 133.11 39.8191 133.099 40.2242V40.2723C133.37 39.8674 133.823 39.5 134.247 39.5H135.271V40.2427H134.228C133.514 40.2427 133.136 40.8515 133.136 41.7767V44.1499H132.305V40.2804H131.908V39.5456H132.428L132.434 39.5483H132.434Z" fill="#FFF9F3"/>
<path id="Vector_24" d="M136.459 42.0106C136.526 42.8419 137.075 43.4694 138.041 43.4694C138.824 43.4694 139.295 43.1503 139.585 42.6866L140.291 43.0432C139.856 43.7779 139.084 44.2498 138.011 44.2498C136.574 44.2498 135.598 43.2256 135.598 41.8471C135.598 40.4687 136.622 39.4443 138 39.4443C139.379 39.4443 140.384 40.4687 140.384 41.8471V42.0106H136.456H136.459ZM139.481 41.3455C139.306 40.6885 138.767 40.2245 138.003 40.2245C137.239 40.2245 136.7 40.6887 136.518 41.3455H139.481H139.481Z" fill="#FFF9F3"/>
<path id="Vector_25" d="M145.158 44.1632C144.646 44.1632 144.493 43.8441 144.493 43.4767V43.0236C144.27 43.8146 143.509 44.249 142.718 44.249C141.868 44.249 140.942 43.8628 140.942 42.8867C140.942 41.9106 141.897 41.5648 142.718 41.4493L144.493 41.1787V40.8783C144.493 40.2402 143.702 40.1249 143.208 40.1249C142.532 40.1249 142.039 40.3288 141.983 41.0715L141.248 40.9937C141.248 39.9024 142.291 39.4492 143.227 39.4492C144.115 39.4492 145.262 39.7765 145.262 40.8679V43.4824H145.686V44.1582H145.155L145.158 44.1634V44.1632ZM142.704 42.0688C142.289 42.136 141.776 42.388 141.776 42.8788C141.776 43.3694 142.318 43.525 142.723 43.525C143.554 43.525 144.49 43.1494 144.49 42.1841V41.7686L142.704 42.0688Z" fill="#FFF9F3"/>
<path id="Vector_26" d="M147.475 37.7248V43.5251H148.266V44.2491H147.735C147.145 44.2383 146.644 43.9221 146.644 43.1765V37.7222H147.475V37.7248Z" fill="#FFF9F3"/>
<path id="Vector_27" d="M149.25 38.7684V37.9961H150.052V38.9989L149.25 38.7684ZM149.647 39.5488C149.907 39.5488 150.081 39.7229 150.081 39.9832V44.1532H149.25V39.549H149.647V39.5488Z" fill="#FFF9F3"/>
<path id="Vector_28" d="M151.017 39.4999C151.518 39.4999 151.904 39.3174 151.99 38.8242L152.135 37.9741H152.762L152.502 39.5482H154.133V40.2347H152.666V43.5252H154.326V44.2492H152.926C152.336 44.2384 151.835 43.9219 151.835 43.1578V40.2323H150.955V39.4975H151.014L151.017 39.5001V39.4999Z" fill="#FFF9F3"/>
<path id="Vector_29" d="M154.56 39.5479H155.428L156.721 43.9778L158.236 39.5479H159.056L156.807 46.1877H155.975L156.662 44.1523H155.957L154.557 39.5479H154.56Z" fill="#FFF9F3"/>
</g>
</g>
</g>
<defs>
<clipPath id="clip0_186_1124">
<rect width="250" height="53.3696" fill="white"/>
</clipPath>
</defs>
</svg>
