<svg width="104" height="108" viewBox="0 0 104 108" fill="none" xmlns="http://www.w3.org/2000/svg">
<g id="svgexport-5 9">
<path id="Vector" d="M51.5 102C78.8381 102 101 79.8381 101 52.5C101 25.1619 78.8381 3 51.5 3C24.1619 3 2 25.1619 2 52.5C2 79.8381 24.1619 102 51.5 102Z" stroke="#C3C0C1" stroke-width="2"/>
<path id="Vector_2" d="M52 102C75.7482 102 95 79.8381 95 52.5C95 25.1619 75.7482 3 52 3C28.2518 3 9 25.1619 9 52.5C9 79.8381 28.2518 102 52 102Z" stroke="#C3C0C1" stroke-width="2"/>
<path id="Vector_3" d="M52.5 102C72.6584 102 89 79.8381 89 52.5C89 25.1619 72.6584 3 52.5 3C32.3416 3 16 25.1619 16 52.5C16 79.8381 32.3416 102 52.5 102Z" stroke="#C3C0C1" stroke-width="2"/>
<path id="Vector_4" d="M52 102C68.5685 102 82 79.8381 82 52.5C82 25.1619 68.5685 3 52 3C35.4315 3 22 25.1619 22 52.5C22 79.8381 35.4315 102 52 102Z" stroke="#C3C0C1" stroke-width="2"/>
<path id="Vector_5" d="M52 102C64.7025 102 75 79.8381 75 52.5C75 25.1619 64.7025 3 52 3C39.2974 3 29 25.1619 29 52.5C29 79.8381 39.2974 102 52 102Z" stroke="#C3C0C1" stroke-width="2"/>
<path id="Vector_6" d="M51.5 102C60.6127 102 68 79.8381 68 52.5C68 25.1619 60.6127 3 51.5 3C42.3873 3 35 25.1619 35 52.5C35 79.8381 42.3873 102 51.5 102Z" stroke="#C3C0C1" stroke-width="2"/>
<path id="Vector_7" d="M52 102C57.5228 102 62 79.8381 62 52.5C62 25.1619 57.5228 3 52 3C46.4772 3 42 25.1619 42 52.5C42 79.8381 46.4772 102 52 102Z" stroke="#C3C0C1" stroke-width="2"/>
</g>
</svg>
